<svg xmlns="http://www.w3.org/2000/svg" viewBox="0 0 960 620" id="mexico-svg">
  <path data-estado="Zacatecas" d="M529.8,280.4L525.6,286.6L522.6,287.1L520.5,291.6L516.1,293.9L515.1,297.9L516.3,299.3L513.6,304.6L508.1,306.4L504.1,312.5L497.3,316.0L495.7,318.9L492.3,319.6L489.6,318.5L487.8,320.7L489.1,327.2L487.7,335.1L495.0,340.9L498.9,342.0L501.7,346.7L507.5,345.6L513.8,339.6L516.9,342.6L512.8,353.2L514.2,356.3L514.0,359.8L510.6,367.3L500.7,361.3L496.6,360.2L494.6,354.9L486.1,348.8L484.3,351.3L476.9,355.0L470.5,367.7L473.3,371.8L474.0,376.7L477.2,378.8L475.5,383.6L468.7,388.7L465.3,388.7L464.2,391.8L462.4,392.8L460.4,392.3L456.4,393.8L449.3,391.5L447.6,388.5L444.7,387.8L444.7,386.8L450.1,384.5L450.7,382.5L447.2,381.5L446.2,378.6L450.2,375.8L450.4,370.7L455.8,366.2L462.0,363.1L464.1,355.6L460.5,354.4L460.9,351.6L458.4,351.4L456.2,352.3L455.8,353.8L457.3,355.7L453.4,360.0L447.0,360.6L446.4,359.3L450.9,350.6L450.2,348.3L446.9,346.1L442.2,347.6L442.2,355.9L441.8,357.3L440.4,357.1L439.0,355.0L439.0,351.1L444.2,341.8L442.1,340.6L436.5,342.9L438.4,348.4L437.3,351.4L435.2,352.8L435.5,347.9L431.9,349.3L431.5,352.9L430.0,352.5L428.7,353.9L427.2,350.8L429.7,343.6L433.7,341.2L433.0,329.5L435.3,325.8L436.9,316.8L442.8,310.6L442.2,300.0L440.9,296.3L444.0,295.1L454.3,284.0L461.4,285.1L465.3,284.3L469.6,286.1L470.5,285.0L479.5,284.6L479.1,282.9L480.2,282.3L479.0,277.7L477.6,277.1L478.5,271.4L474.4,267.5L474.1,263.4L481.1,261.6L491.2,262.1L497.9,265.4L502.7,270.9L505.7,270.8L506.4,274.9L513.4,273.3L516.9,273.8L522.2,280.6L524.6,281.6L527.3,279.8L529.8,280.4Z"/>
  <path data-estado="Yucatán" d="M916.3,378.3L916.7,384.6L915.0,390.3L916.4,395.3L911.9,405.6L902.9,411.7L896.7,411.6L895.0,414.9L895.3,417.5L892.6,415.6L891.1,418.9L882.1,423.1L880.2,425.9L878.1,425.5L876.4,427.3L872.2,427.8L867.8,430.8L863.6,431.0L861.7,436.8L860.3,432.1L855.3,424.8L850.8,422.3L844.6,411.0L842.2,412.9L839.3,411.9L838.2,409.5L833.4,408.9L833.6,400.1L832.6,399.8L834.2,394.7L842.0,388.8L848.6,386.1L878.4,381.1L884.3,378.8L884.9,377.1L895.1,376.0L899.2,373.9L907.7,376.0L909.4,377.6L916.3,378.3Z"/>
  <path data-estado="Veracruz" d="M629.5,378.4L628.1,381.9L627.6,380.3L629.5,378.4Z M618.2,353.9L621.4,372.7L624.6,379.0L627.0,379.5L627.1,383.1L636.0,404.5L657.3,430.6L659.4,439.6L661.2,442.2L661.7,447.5L666.5,451.1L668.3,455.4L671.1,455.8L673.3,462.2L677.3,464.2L677.4,465.1L674.3,463.9L675.2,465.1L674.5,466.7L677.5,465.8L677.8,464.3L683.0,466.6L694.1,466.9L698.2,471.2L705.3,472.8L712.6,484.3L718.4,484.2L726.8,482.0L724.7,482.8L726.3,493.8L730.8,497.9L736.1,500.4L737.5,509.6L739.8,510.5L735.5,514.1L732.1,516.5L698.9,514.4L698.6,510.8L690.7,502.0L692.9,499.0L691.3,497.9L681.6,502.9L674.6,503.2L671.8,495.5L675.0,488.6L673.3,483.4L667.3,482.4L665.0,483.4L662.1,479.5L658.9,479.0L656.7,477.1L655.2,472.6L655.9,471.1L653.4,469.3L651.4,475.8L649.3,473.1L646.3,472.1L643.6,474.4L641.9,474.3L639.9,469.5L634.5,467.3L634.1,462.3L636.3,459.4L636.0,450.2L642.2,450.4L642.4,449.5L641.7,447.2L632.4,443.5L631.1,437.7L638.5,419.7L630.3,416.7L626.1,421.5L624.4,419.1L621.2,418.7L620.6,411.1L622.0,410.2L623.8,411.3L625.6,408.3L621.5,404.5L621.7,402.5L619.6,401.6L621.0,400.7L621.1,398.6L617.3,398.5L613.9,405.8L611.3,405.1L599.8,415.0L597.4,410.5L598.7,402.1L602.6,397.8L604.7,399.5L606.4,399.2L606.8,394.5L608.9,392.0L606.0,387.5L603.6,386.8L601.1,387.8L597.5,384.9L597.9,381.8L596.6,380.7L596.4,376.7L594.9,376.4L593.8,372.5L599.0,368.8L596.4,366.1L595.9,363.0L598.4,362.8L598.3,359.0L602.5,358.0L600.3,353.0L592.4,351.4L591.5,350.0L598.4,348.5L601.1,349.9L603.4,349.4L603.7,347.8L606.6,347.4L607.5,349.0L612.2,351.0L615.8,355.6L618.2,353.9Z M623.3,367.1L631.5,376.1L628.5,384.9L628.1,382.5L630.0,376.8L623.2,368.8L623.3,367.1Z"/>
  <path data-estado="Tlaxcala" d="M595.1,442.7L592.5,440.0L601.9,437.9L604.6,434.7L609.7,435.7L612.2,433.2L618.4,438.7L618.1,440.5L621.0,440.4L625.3,444.7L624.0,446.8L620.0,447.0L616.9,450.9L613.6,449.8L609.1,453.2L604.3,450.5L602.4,447.2L596.7,442.3L595.1,442.7Z"/>
  <path data-estado="Tamaulipas" d="M620.4,289.3L620.1,294.5L620.4,289.3Z M628.3,258.5L625.5,266.8L625.4,264.2L628.3,258.5Z M618.2,353.9L615.8,355.6L612.2,351.0L607.5,349.0L606.6,347.4L603.7,347.8L603.4,349.4L601.1,349.9L598.4,348.5L587.9,350.3L585.7,348.9L584.8,349.8L577.7,349.7L573.2,342.0L568.7,338.5L566.9,338.8L566.2,340.5L554.9,337.7L553.4,335.8L553.6,328.0L551.8,325.7L550.5,319.6L552.1,318.6L555.0,319.2L554.8,313.8L557.6,307.3L560.3,305.8L564.1,306.5L567.0,303.4L569.6,304.0L563.4,293.6L564.4,285.7L563.0,282.6L560.8,282.7L561.0,280.6L567.0,276.9L568.5,274.4L570.6,274.6L573.6,270.9L574.5,272.6L575.8,272.0L576.4,270.2L578.5,269.3L578.9,267.3L577.4,264.3L580.9,261.1L582.2,262.5L585.4,262.7L587.5,259.1L592.6,258.1L597.6,254.3L600.1,250.3L596.1,248.3L596.3,236.7L595.2,233.8L585.0,235.0L582.9,231.7L577.7,229.9L578.7,229.5L578.1,226.4L575.7,227.1L574.4,224.1L572.7,224.2L569.2,216.6L567.0,216.4L566.0,214.2L563.3,213.2L564.1,208.1L560.3,206.5L561.1,202.5L563.0,200.9L560.9,194.4L561.2,191.6L559.7,190.6L560.8,187.8L555.7,187.2L556.5,184.3L559.7,183.4L561.9,181.1L565.6,182.0L568.1,184.5L567.7,186.4L569.0,187.0L567.5,192.6L570.1,194.5L570.1,201.7L574.8,206.9L578.1,217.1L579.5,217.7L580.9,221.6L588.8,222.6L592.5,226.2L599.3,227.2L606.4,232.6L615.4,232.2L621.8,233.6L628.7,239.4L630.5,239.1L631.2,236.5L637.0,235.7L635.5,245.8L628.9,258.6L628.0,258.4L629.8,253.4L625.7,251.0L624.5,252.3L626.2,253.4L625.0,255.3L625.8,256.9L624.9,257.3L624.5,255.7L623.6,256.4L623.1,254.4L621.1,254.6L619.1,257.8L621.7,260.6L619.3,266.7L622.1,268.3L619.6,270.9L620.6,277.5L619.6,282.5L618.8,280.2L616.2,281.4L618.3,286.7L619.3,283.9L618.8,295.2L617.7,295.5L618.7,296.0L619.5,309.0L619.8,305.5L618.9,334.0L615.1,342.7L616.2,343.6L615.8,348.1L618.2,353.9Z"/>
  <path data-estado="Tabasco" d="M773.0,468.7L775.0,474.4L778.7,476.9L779.8,476.5L782.6,484.2L789.1,491.0L794.9,493.0L798.4,492.0L798.7,487.3L801.9,487.2L806.2,488.2L810.8,492.0L816.2,493.4L815.9,513.1L803.7,513.3L805.2,511.7L803.9,509.5L797.1,506.6L798.0,503.3L796.5,499.3L793.5,497.8L792.9,494.3L788.8,494.3L786.6,492.8L785.8,495.0L781.5,494.5L780.9,498.5L777.1,499.9L764.6,509.9L761.9,505.9L758.4,505.2L758.8,502.9L755.9,499.1L757.7,493.6L754.9,493.8L749.9,490.3L747.4,491.4L746.5,500.0L742.8,504.7L742.7,506.7L739.8,510.5L737.5,509.6L736.1,500.4L730.8,497.9L726.3,493.8L724.7,482.8L732.0,480.2L732.2,481.7L735.3,481.1L736.4,478.9L740.3,479.1L740.8,476.9L744.7,475.9L744.9,476.7L745.9,475.7L752.2,475.4L753.2,475.9L752.5,477.6L755.2,477.5L755.7,476.8L753.5,475.9L760.7,475.3L766.9,470.0L773.0,468.7Z M740.3,477.1L733.0,479.7L740.3,477.1Z"/>
  <path data-estado="Sonora" d="M196.9,131.2L197.1,134.2L199.4,138.0L196.1,146.7L188.2,142.6L190.8,140.3L190.4,136.6L191.9,132.3L196.9,131.2Z M245.7,190.7L247.5,193.2L245.7,192.2L245.7,190.7Z M287.2,224.1L286.0,224.0L287.2,224.1Z M298.9,64.2L300.2,65.3L299.1,66.7L301.9,73.7L301.3,77.1L299.4,77.8L302.6,80.8L303.9,84.4L303.3,87.1L306.7,96.8L305.6,100.5L307.3,102.0L305.1,111.5L306.8,113.1L307.8,120.7L307.0,131.9L305.1,133.3L304.9,136.3L303.2,137.7L303.4,144.6L301.8,149.1L302.2,154.5L306.6,157.5L300.8,161.7L297.3,160.1L292.6,161.6L291.4,163.2L293.5,165.0L292.8,168.2L297.8,173.2L297.4,177.8L301.3,180.5L305.2,189.6L303.3,199.5L307.4,201.6L311.8,201.4L311.8,202.4L307.8,207.9L308.2,210.7L306.0,211.3L304.1,215.3L298.9,216.9L298.2,220.7L291.0,224.7L287.4,220.5L286.8,222.9L283.9,217.0L278.3,210.6L277.0,210.1L276.0,212.3L272.5,212.8L268.6,210.5L265.6,200.2L263.6,198.7L261.5,199.7L254.5,197.5L249.3,193.3L249.3,190.5L247.2,189.9L245.0,182.5L246.7,180.5L245.8,180.4L245.8,176.4L247.6,175.2L239.3,172.0L237.3,173.3L237.8,175.2L235.2,173.6L235.0,172.0L231.9,172.5L229.0,170.6L226.1,167.9L220.8,159.0L213.5,155.9L212.0,151.6L206.7,146.1L208.0,145.4L208.6,146.7L209.3,145.3L204.2,143.1L202.3,140.1L200.0,139.5L200.3,135.0L198.4,132.8L198.3,128.8L193.4,127.9L194.1,123.3L188.2,115.9L185.8,110.2L183.4,109.4L182.6,99.6L180.3,97.5L179.0,92.1L173.6,85.3L172.3,80.8L174.3,73.9L173.3,68.9L169.7,66.5L168.3,67.1L157.9,64.4L156.9,59.1L150.4,55.4L148.4,55.0L146.0,59.2L142.7,59.1L129.8,50.7L127.3,50.6L118.2,45.5L117.1,44.5L118.4,36.2L116.9,33.5L120.3,27.2L123.3,27.1L232.0,64.3L298.9,64.2Z M128.4,50.6L129.3,51.5L127.6,51.0L128.4,50.6Z M124.1,48.7L127.6,51.8L127.9,53.7L123.9,51.5L124.1,48.7Z"/>
  <path data-estado="Sinaloa" d="M311.1,259.5L313.4,261.6L311.1,259.5Z M317.3,264.6L319.6,266.3L320.0,271.8L317.4,268.0L317.3,264.6Z M311.7,262.2L317.6,268.6L318.5,271.5L311.7,262.2Z M286.0,224.0L287.8,224.6L287.2,226.0L288.4,226.8L289.7,225.7L287.6,223.1L287.4,220.5L291.0,224.7L298.2,220.7L298.9,216.9L303.6,215.8L306.0,211.3L308.2,210.7L307.8,207.9L311.8,201.4L318.3,201.6L318.4,204.9L320.5,204.9L321.8,207.5L321.7,214.6L327.0,223.6L328.4,228.9L339.3,231.4L342.7,237.0L343.3,240.7L346.7,244.6L343.5,248.9L344.9,250.4L343.3,254.1L342.6,262.3L346.6,268.6L346.2,270.3L350.9,271.2L352.0,274.2L353.5,274.6L354.9,279.8L356.5,279.8L359.2,288.6L363.3,288.1L367.4,284.4L372.1,285.7L375.7,288.4L377.9,292.1L381.7,305.1L386.0,310.8L387.4,318.6L390.5,326.4L394.6,326.0L397.1,328.5L393.1,337.0L395.8,342.1L395.4,345.6L389.2,343.4L388.1,338.5L388.2,346.8L383.9,339.9L378.4,335.2L368.3,323.1L367.0,323.6L364.2,317.5L356.0,309.2L353.6,303.2L344.9,295.0L345.9,293.5L344.4,294.2L327.1,282.3L335.6,287.6L336.5,285.7L335.4,282.4L333.0,281.5L333.1,283.2L331.8,283.4L330.5,281.8L328.6,282.2L327.6,280.1L323.8,277.8L321.9,277.7L319.4,273.2L321.5,274.3L322.3,272.9L320.9,269.6L321.6,267.3L319.5,263.6L316.6,262.8L310.8,257.9L310.1,260.3L308.0,257.8L301.7,254.6L301.9,253.3L300.3,253.7L298.6,251.1L299.3,249.5L297.0,248.2L295.0,248.3L295.6,250.2L294.2,251.7L293.0,250.0L291.0,251.4L288.9,248.9L293.0,247.8L294.5,246.3L294.1,244.8L291.7,245.5L290.7,247.6L287.9,247.5L285.5,244.4L285.6,245.7L282.7,245.6L283.9,245.3L284.0,243.0L279.8,240.9L279.6,234.3L285.1,224.2L283.5,228.9L284.3,229.3L286.0,224.0Z"/>
  <path data-estado="San Luis Potosí" d="M550.6,322.1L553.6,328.0L553.4,335.8L554.9,337.7L566.2,340.5L568.0,338.1L573.2,342.0L577.7,349.7L584.8,349.8L585.7,348.9L601.1,353.8L602.5,358.0L598.3,359.0L598.4,362.8L595.5,363.7L599.0,368.8L593.8,372.5L594.9,376.4L596.4,376.7L596.6,380.7L594.6,380.6L591.2,386.4L589.9,385.6L587.3,387.7L584.5,383.5L580.8,384.1L575.2,376.0L572.8,376.2L571.6,379.5L565.8,379.4L563.9,375.8L561.3,375.1L561.4,376.2L559.7,376.7L560.3,377.4L557.3,378.9L554.6,377.9L552.1,378.7L545.6,373.1L541.0,371.6L539.2,376.0L534.3,376.7L525.3,370.6L512.4,367.2L511.1,366.4L514.4,357.8L512.8,353.2L516.9,343.5L514.6,339.6L512.1,340.5L507.5,345.6L502.3,346.9L498.9,342.0L495.0,340.9L487.7,335.1L489.1,327.2L487.9,323.6L488.8,318.7L495.7,318.9L497.3,316.0L504.1,312.5L508.1,306.4L513.6,304.6L516.3,299.3L515.1,297.9L516.1,293.9L520.5,291.6L522.6,287.1L525.6,286.6L529.2,280.9L530.5,283.2L534.0,283.9L534.2,286.5L532.8,288.3L539.0,299.2L538.7,304.3L540.0,307.1L538.6,313.7L540.2,321.9L543.3,324.5L546.1,321.2L550.6,322.1Z"/>
  <path data-estado="Quintana Roo" d="M939.9,406.8L937.3,411.6L932.1,416.9L931.5,412.5L934.1,408.0L936.7,408.5L939.9,406.8Z M928.5,375.0L926.0,377.0L923.6,377.4L923.1,376.4L928.5,375.0Z M869.6,491.3L869.3,488.3L872.8,483.3L872.6,473.9L871.6,473.3L872.2,471.7L870.7,466.7L873.5,450.2L871.0,445.9L861.7,436.8L863.0,431.6L867.8,430.8L872.2,427.8L876.4,427.3L878.1,425.5L880.2,425.9L882.1,423.1L891.1,418.9L892.6,415.6L895.3,417.5L895.0,414.9L896.7,411.6L902.9,411.7L911.9,405.6L916.4,395.3L915.0,390.3L916.7,384.6L916.3,378.3L922.0,380.0L926.5,379.7L928.7,378.7L929.0,375.1L931.7,376.0L935.3,380.9L936.4,385.8L937.9,380.8L937.6,387.8L939.2,389.8L935.7,398.5L929.1,406.8L924.6,410.4L919.7,418.4L918.1,423.2L918.7,429.7L917.5,431.8L915.2,432.4L913.3,435.6L910.5,437.1L910.2,438.5L912.4,439.6L913.1,441.5L914.1,439.9L916.6,440.3L917.3,438.9L919.3,438.6L919.9,439.6L919.1,442.6L916.8,444.9L916.3,443.9L913.5,445.7L912.7,447.8L912.3,451.2L913.9,451.1L917.2,447.3L918.9,447.8L916.3,450.9L907.4,483.0L905.9,482.5L906.4,478.3L904.7,476.9L904.9,475.6L900.6,473.2L902.9,465.9L900.9,462.0L894.4,473.8L888.9,473.8L887.8,474.8L882.5,487.5L878.3,491.8L878.4,493.7L873.2,489.4L869.6,491.3Z"/>
  <path data-estado="Querétaro" d="M581.8,384.4L580.3,388.2L575.6,389.7L574.2,388.8L572.2,390.6L571.0,396.4L567.4,401.4L568.2,403.8L559.2,408.0L558.0,415.9L556.6,418.5L554.5,418.3L555.5,421.5L553.3,423.9L550.3,424.3L539.0,410.3L539.0,407.0L537.0,403.2L538.6,396.9L548.8,396.2L549.9,394.4L550.8,395.0L551.5,391.3L554.1,387.3L555.8,386.7L557.9,388.8L561.5,386.5L562.3,383.4L559.5,382.7L560.9,377.9L559.7,376.7L561.4,376.2L561.3,375.1L563.9,375.8L566.7,379.6L571.6,379.5L572.8,376.2L575.2,376.0L581.8,384.4Z"/>
  <path data-estado="Puebla" d="M651.4,475.8L648.3,481.0L645.5,481.6L641.4,484.9L637.0,483.8L634.6,484.7L630.4,490.7L624.8,481.4L626.4,480.3L625.7,478.2L622.0,479.2L619.7,484.5L622.9,487.4L620.9,490.0L616.2,487.8L610.5,488.5L604.9,492.3L601.1,488.9L596.1,490.2L596.0,488.9L591.1,486.7L592.1,484.9L588.4,484.8L583.8,479.9L584.2,478.0L590.1,472.6L593.9,475.6L594.5,474.8L593.0,465.2L596.2,456.6L595.1,442.7L596.7,442.3L602.4,447.2L604.3,450.5L609.1,453.2L613.6,449.8L616.9,450.9L620.0,447.0L625.0,446.1L625.3,444.7L623.1,442.3L621.0,440.4L618.1,440.5L618.4,438.7L612.8,433.3L609.7,435.7L607.3,435.3L606.5,430.9L609.2,420.1L608.7,417.4L606.3,418.0L605.4,416.3L609.6,414.1L614.0,409.4L614.3,403.7L617.3,398.5L621.1,398.6L621.0,400.7L619.6,401.6L621.7,402.5L621.5,404.5L625.6,408.3L623.8,411.3L622.0,410.2L620.6,411.1L621.2,418.7L624.4,419.1L626.1,421.5L630.3,416.7L638.5,419.7L631.1,437.7L632.4,443.5L641.7,447.2L642.4,449.5L642.2,450.4L636.0,450.2L636.3,459.4L634.1,462.3L634.5,467.3L639.9,469.5L641.9,474.3L643.6,474.4L646.3,472.1L649.3,473.1L651.4,475.8Z"/>
  <path data-estado="Oaxaca" d="M732.1,516.5L729.9,525.7L726.7,528.6L724.0,536.6L725.3,541.3L724.9,546.2L722.6,547.3L720.6,546.7L717.6,543.8L715.6,545.6L716.9,547.5L721.9,547.9L725.3,551.6L716.4,547.9L708.0,546.5L707.6,545.7L710.2,544.8L711.6,542.6L708.8,541.6L705.4,544.5L704.7,543.8L706.0,542.7L703.4,539.5L701.4,540.0L696.4,545.9L704.6,546.4L695.1,547.2L691.3,548.7L686.8,553.9L671.3,558.8L663.3,563.3L654.1,564.1L645.3,561.6L635.1,555.7L618.8,554.0L605.8,545.8L596.0,543.1L601.4,538.7L601.9,536.2L606.7,531.8L606.9,530.2L611.0,527.2L611.1,522.5L609.2,521.5L608.5,517.0L605.2,515.5L606.5,511.9L605.8,506.3L602.6,498.9L606.2,490.6L608.6,489.0L616.2,487.8L620.9,490.0L622.9,487.4L619.7,484.5L622.0,479.2L625.7,478.2L626.4,480.3L624.8,481.4L630.4,490.7L635.5,484.2L641.4,484.9L645.5,481.6L648.3,481.0L651.8,475.4L653.4,469.3L655.9,471.1L655.2,472.6L656.7,477.1L658.9,479.0L662.1,479.5L665.0,483.4L667.3,482.4L673.9,484.0L674.8,490.1L671.8,495.5L674.6,503.2L681.6,502.9L691.3,497.9L692.9,499.0L690.7,502.0L698.6,510.8L698.9,514.4L732.1,516.5Z"/>
  <path data-estado="Nuevo León" d="M561.9,181.1L559.7,183.4L556.5,184.3L555.7,187.2L560.8,187.8L559.7,190.6L561.2,191.6L560.9,194.4L563.0,200.9L561.1,202.5L560.3,206.5L564.1,208.1L563.3,213.2L566.0,214.2L567.0,216.4L569.2,216.6L572.7,224.2L574.4,224.1L575.7,227.1L578.1,226.4L578.7,229.5L577.7,229.9L582.9,231.7L585.0,235.0L595.2,233.8L596.3,236.7L596.1,248.3L600.1,250.3L597.6,254.3L592.6,258.1L587.5,259.1L585.4,262.7L582.2,262.5L580.9,261.1L577.4,264.3L578.9,267.3L578.5,269.3L576.4,270.2L575.8,272.0L574.5,272.6L573.6,270.9L570.6,274.6L568.5,274.4L567.0,276.9L561.4,280.0L560.6,282.4L563.0,282.6L564.4,285.7L563.4,293.6L569.6,304.0L567.0,303.4L564.1,306.5L560.3,305.8L557.6,307.3L554.8,313.8L555.0,319.2L551.4,318.8L550.6,322.1L546.1,321.2L543.3,324.5L540.6,322.6L539.5,320.0L538.6,313.7L540.0,307.1L538.7,304.3L539.0,299.2L532.8,288.3L534.2,286.5L534.0,283.9L530.5,283.2L529.2,280.9L531.0,276.6L528.5,269.4L531.5,268.9L530.7,261.9L534.3,257.2L537.4,257.0L538.9,258.8L542.9,259.8L545.6,259.6L546.6,257.3L544.5,254.9L540.4,254.1L540.9,252.9L536.2,249.8L535.1,245.4L530.4,244.4L529.1,239.5L529.9,235.4L527.2,234.0L526.0,230.4L517.3,222.1L522.6,214.2L533.4,211.9L535.9,208.5L537.0,205.2L536.4,200.1L533.3,198.4L531.8,202.0L528.5,199.6L528.2,195.8L531.8,191.2L538.9,190.2L538.7,187.6L541.7,181.1L547.2,180.1L553.6,181.1L559.4,177.8L561.9,181.1Z"/>
  <path data-estado="Nayarit" d="M388.7,343.6L390.0,355.9L386.9,345.7L389.1,346.7L388.7,343.6Z M360.0,369.0L359.8,370.5L360.0,369.0Z M372.8,383.1L372.1,384.5L371.5,383.6L372.8,383.1Z M360.5,371.5L363.5,372.4L364.6,375.6L361.1,374.5L360.5,371.5Z M427.1,349.0L428.9,354.5L427.5,360.3L428.0,363.9L429.9,363.3L433.2,365.3L434.3,370.5L439.6,371.2L443.5,379.6L442.6,385.6L435.7,389.1L431.0,389.4L429.3,399.6L427.8,400.5L430.2,406.8L421.1,397.2L417.5,396.3L414.4,393.7L409.2,396.8L404.6,397.2L400.0,403.6L398.6,401.5L397.0,402.3L393.5,401.1L399.5,392.6L400.7,393.0L402.0,391.1L401.5,382.8L403.1,379.6L402.0,377.1L395.5,373.7L389.7,361.4L389.8,356.4L390.7,356.0L394.6,359.6L395.0,357.8L390.8,355.0L388.8,343.6L395.4,345.6L396.1,344.5L393.1,337.0L396.1,329.3L397.1,328.5L399.6,331.7L403.3,329.7L405.0,331.8L408.6,332.5L409.7,335.6L411.6,336.0L411.1,338.5L407.1,341.6L409.7,347.0L413.0,343.0L422.7,352.2L427.1,349.0Z M366.8,377.9L369.1,379.0L368.3,380.4L365.2,378.7L366.8,377.9Z"/>
  <path data-estado="Morelos" d="M587.0,455.3L589.2,458.2L592.2,459.4L596.2,456.6L593.0,465.2L593.9,475.6L590.7,472.4L583.9,478.4L581.2,475.6L574.8,474.7L572.5,471.5L569.4,470.7L569.8,467.2L576.8,455.5L578.3,455.2L579.7,456.7L582.1,455.2L583.2,456.2L587.0,455.3Z"/>
  <path data-estado="Michoacán" d="M543.5,416.2L550.3,424.3L551.3,428.9L549.1,434.1L546.0,434.4L547.9,443.7L542.4,455.2L539.2,457.3L534.0,464.5L532.8,462.5L531.0,464.8L532.8,473.8L536.1,478.4L535.2,479.6L528.5,475.5L526.1,476.7L524.6,473.7L516.6,472.4L509.9,474.1L506.5,470.9L502.8,470.6L501.5,472.2L500.7,471.4L498.9,472.3L499.2,480.9L490.7,484.3L490.4,487.9L491.8,491.6L490.3,492.2L456.3,481.1L451.8,478.3L449.8,473.3L446.4,470.5L446.9,469.5L445.0,467.2L448.0,463.7L447.9,461.6L449.6,461.6L453.5,458.4L456.2,458.8L458.8,456.7L461.2,458.8L470.2,450.9L474.5,450.8L478.2,444.9L477.5,442.2L473.6,442.3L474.3,439.2L472.1,434.1L473.5,432.2L472.8,429.6L468.3,427.7L464.6,428.0L464.0,426.9L465.1,422.3L466.6,422.2L466.9,420.8L471.5,422.9L481.4,415.8L490.7,413.9L495.9,414.5L497.0,419.0L498.4,419.7L499.8,418.8L504.0,419.5L506.3,416.2L511.1,415.5L514.0,418.6L512.0,418.3L513.1,424.9L518.2,426.1L519.6,425.4L519.3,424.2L524.1,423.5L524.7,427.1L534.4,428.1L537.8,426.4L538.7,428.3L540.1,425.6L543.9,423.9L543.5,416.2Z"/>
  <path data-estado="Estado de México" d="M592.5,440.0L595.1,442.7L596.1,451.3L596.2,456.6L593.3,458.7L592.2,459.4L589.2,458.2L587.0,455.3L586.9,450.4L580.0,440.7L577.3,445.7L573.6,449.1L576.8,455.5L569.6,468.4L567.7,468.8L563.4,466.8L563.8,468.9L561.7,469.2L561.2,471.1L552.7,472.4L553.1,474.8L550.4,475.4L547.9,478.1L546.3,478.4L544.5,474.9L540.4,474.1L542.6,471.0L540.1,466.7L542.1,459.2L541.8,455.6L547.9,443.7L546.0,434.4L549.1,434.1L551.3,428.9L550.3,424.3L553.3,423.9L555.5,421.5L554.8,417.9L556.6,418.5L558.0,415.9L562.4,419.3L567.8,420.2L572.3,429.9L572.5,434.4L574.0,433.4L574.2,430.7L576.7,431.9L577.5,431.0L578.1,426.4L586.5,423.6L585.7,430.3L583.5,431.7L584.5,434.9L585.5,435.1L587.5,431.9L594.2,431.2L592.5,440.0Z"/>
  <path data-estado="Jalisco" d="M473.3,371.8L475.7,370.5L480.6,371.0L485.1,373.9L490.1,372.5L493.9,367.7L498.9,365.4L496.6,362.8L496.6,360.2L500.7,361.3L509.0,366.8L507.6,368.4L508.4,369.3L505.4,378.4L506.5,381.7L505.2,383.8L503.5,383.9L501.7,388.8L499.5,390.3L491.9,401.3L496.3,405.8L493.9,413.9L481.4,415.8L471.5,422.9L466.9,420.8L466.6,422.2L465.1,422.3L464.6,428.0L465.7,427.3L472.1,428.8L473.4,431.0L472.1,434.1L474.3,439.2L473.6,442.3L478.2,443.1L474.5,450.8L470.2,450.9L461.2,458.8L458.8,456.7L456.2,458.8L452.4,458.9L451.4,454.6L452.6,447.1L450.2,445.0L448.9,439.7L442.2,444.6L436.8,444.5L433.2,447.3L425.4,447.8L419.1,451.3L414.1,450.1L414.6,448.1L412.2,448.5L409.9,447.2L407.7,445.1L406.0,439.7L400.9,435.8L393.9,425.3L392.5,418.4L388.4,412.6L390.7,410.6L397.9,409.6L401.1,407.9L401.9,406.0L400.0,403.6L404.6,397.2L409.2,396.8L412.9,393.9L421.1,397.2L430.2,406.8L427.8,400.5L429.3,399.6L431.0,389.4L435.7,389.1L442.6,385.6L443.5,379.6L439.6,371.2L434.3,370.5L433.2,365.3L429.9,363.3L428.0,363.9L427.7,362.8L428.7,353.9L430.0,352.5L431.5,352.9L431.9,349.3L436.2,348.4L435.2,352.8L438.5,350.1L436.5,342.9L440.9,340.6L444.2,341.8L439.0,351.1L439.0,355.0L441.1,357.5L442.2,355.9L442.2,347.6L446.9,346.1L450.2,348.3L450.8,352.0L446.4,359.3L447.0,360.6L453.4,360.0L457.3,355.7L455.8,353.8L456.2,352.3L458.4,351.4L460.9,351.6L460.5,354.4L464.1,355.6L462.0,363.1L455.8,366.2L450.4,370.7L450.2,375.8L446.2,378.6L447.2,381.5L450.7,382.5L450.1,384.5L444.7,386.8L444.7,387.8L447.6,388.5L449.3,391.5L456.4,393.8L460.4,392.3L462.4,392.8L464.2,391.8L465.3,388.7L468.7,388.7L475.5,383.6L477.2,378.8L474.0,376.7L473.3,371.8Z"/>
  <path data-estado="Hidalgo" d="M596.6,380.7L597.9,381.8L597.5,384.9L599.7,387.0L606.0,387.5L608.9,392.0L606.8,394.5L606.4,399.2L604.7,399.5L602.6,397.8L598.7,402.1L597.4,409.6L598.7,413.7L600.3,414.7L612.3,404.7L613.9,405.8L614.0,409.4L609.6,414.1L605.4,416.3L606.3,418.0L608.7,417.4L609.2,420.1L606.5,429.6L607.3,435.3L604.6,434.7L601.9,437.9L592.5,440.0L594.2,431.2L587.5,431.9L585.5,435.1L584.5,434.9L583.5,431.7L585.7,430.3L586.5,423.6L578.1,426.4L577.5,431.0L576.7,431.9L574.2,430.7L574.0,433.4L572.5,434.4L572.3,429.9L569.7,426.1L570.5,424.9L568.7,421.2L562.4,419.3L558.0,415.9L559.2,408.0L568.2,403.8L567.4,401.4L571.0,396.4L572.2,390.6L574.2,388.8L575.6,389.7L580.3,388.2L581.8,384.4L584.5,383.5L585.8,386.4L588.6,387.6L589.9,385.6L591.2,386.4L594.6,380.6L596.6,380.7Z"/>
  <path data-estado="Guerrero" d="M569.6,468.4L569.9,471.2L572.5,471.5L574.8,474.7L581.2,475.6L588.4,484.8L591.4,484.4L592.1,485.5L591.1,486.7L596.0,488.9L596.1,490.2L601.1,488.9L604.9,492.3L602.6,498.9L605.8,506.3L606.5,511.9L605.2,515.5L608.5,517.0L608.9,520.8L611.5,524.4L611.0,527.2L606.9,530.2L606.7,531.8L601.9,536.2L601.4,538.7L596.0,543.1L589.6,535.6L587.3,536.5L573.4,532.3L563.3,530.8L557.6,527.3L558.1,526.0L556.5,526.9L554.2,524.2L523.3,512.6L519.1,507.7L511.8,504.5L511.0,502.2L506.2,500.0L501.6,493.2L497.2,490.6L494.6,489.8L492.2,491.0L490.7,489.8L490.7,484.3L499.2,480.9L498.9,472.3L500.7,471.4L501.5,472.2L502.8,470.6L506.5,470.9L509.9,474.1L516.6,472.4L524.6,473.7L526.1,476.7L528.5,475.5L535.2,479.6L536.1,478.4L532.8,473.8L531.0,464.8L532.8,462.5L534.0,464.5L539.2,457.3L541.8,455.6L542.1,459.2L540.1,466.7L542.6,471.0L540.4,474.1L544.5,474.9L546.3,478.4L553.1,474.8L552.3,473.1L553.9,471.8L561.2,471.1L561.7,469.2L563.8,468.9L563.4,466.8L567.7,468.8L569.6,468.4Z"/>
  <path data-estado="Guanajuato" d="M560.3,377.4L560.8,380.4L559.5,382.7L562.3,383.4L561.5,386.5L557.9,388.8L555.8,386.7L554.1,387.3L551.5,391.3L550.8,395.0L549.9,394.4L548.8,396.2L538.6,396.9L537.8,398.6L537.2,404.1L539.0,407.0L539.0,410.3L543.5,416.2L543.2,422.3L544.2,423.0L542.5,425.3L540.1,425.6L538.7,428.3L537.8,426.4L534.4,428.1L524.7,427.1L524.1,423.5L519.3,424.2L519.6,425.4L518.2,426.1L513.1,424.9L512.0,418.3L514.0,418.6L511.1,415.5L506.3,416.2L504.0,419.5L499.8,418.8L498.4,419.7L497.0,419.0L496.6,415.1L493.9,413.9L496.3,405.8L491.9,401.3L499.5,390.3L501.7,388.8L503.5,383.9L505.2,383.8L506.5,381.7L505.4,378.4L508.6,367.0L510.1,367.6L511.1,366.4L525.3,370.6L534.3,376.7L539.2,376.0L541.0,371.6L545.6,373.1L552.1,378.7L554.6,377.9L557.3,378.9L560.3,377.4Z"/>
  <path data-estado="Durango" d="M441.5,210.5L445.8,212.1L450.9,217.3L452.5,221.9L452.1,226.8L454.1,231.4L453.8,236.3L455.2,241.4L451.0,248.4L451.6,250.4L454.1,252.1L449.9,254.2L450.7,257.9L456.2,264.6L456.9,268.2L459.1,270.6L468.7,274.2L469.9,273.3L469.3,271.3L470.5,267.7L474.1,265.3L475.8,269.5L478.3,270.8L477.6,277.1L479.0,277.7L480.2,282.3L479.1,282.9L479.5,284.6L470.5,285.0L469.6,286.1L465.3,284.3L461.4,285.1L453.7,284.2L444.0,295.1L441.2,295.9L442.8,310.6L437.5,315.6L435.3,325.8L433.0,329.5L433.7,341.2L429.7,343.6L427.1,349.0L422.7,352.2L413.0,343.0L410.5,347.1L408.9,346.1L407.1,341.6L411.8,337.5L408.6,332.5L405.0,331.8L403.3,329.7L399.6,331.7L394.6,326.0L390.5,326.4L387.4,318.6L386.0,310.8L381.7,305.1L379.5,296.3L375.7,288.4L372.1,285.7L367.4,284.4L363.3,288.1L359.2,288.6L356.5,279.8L354.9,279.8L353.5,274.6L352.0,274.2L350.9,271.2L346.2,270.3L346.6,268.6L342.6,262.3L343.3,254.1L344.9,250.4L343.5,248.9L346.9,245.4L346.2,243.2L348.3,242.3L350.5,244.6L351.9,244.2L357.2,247.2L362.4,242.4L364.8,238.5L363.0,234.5L366.0,229.6L365.6,227.2L367.3,226.9L367.3,225.4L370.9,222.7L369.5,220.4L372.2,210.3L374.3,209.6L375.4,207.5L381.1,210.3L384.0,214.0L392.3,217.0L393.3,218.9L400.0,219.2L402.4,217.8L402.4,216.5L408.3,217.5L413.7,221.2L418.2,220.1L418.2,217.7L420.4,214.2L423.5,211.8L426.4,211.4L426.5,210.2L424.2,209.3L425.4,208.1L431.1,210.9L437.6,209.4L441.5,210.5Z"/>
  <path data-estado="Ciudad de México" d="M587.0,455.3L583.2,456.2L582.1,455.2L579.7,456.7L578.3,455.2L576.8,455.5L573.7,450.2L580.0,440.7L586.9,450.4L587.0,455.3Z"/>
  <path data-estado="Colima" d="M452.4,458.9L449.6,461.6L447.9,461.6L448.0,463.7L445.0,467.2L438.6,461.9L427.9,456.9L428.3,454.5L427.0,453.8L424.9,454.9L417.3,451.8L420.5,450.9L421.9,449.0L423.8,449.5L425.4,447.8L433.2,447.3L436.8,444.5L442.2,444.6L449.6,439.8L450.0,444.6L452.6,447.1L451.4,454.6L452.4,458.9Z"/>
  <path data-estado="Coahuila" d="M558.5,178.0L553.6,181.1L543.0,180.4L538.7,187.6L538.9,190.2L531.8,191.2L530.4,192.4L528.2,195.8L528.5,199.6L531.8,202.0L533.3,198.4L536.4,200.1L537.0,205.2L535.9,208.5L533.4,211.9L522.6,214.2L517.5,221.1L517.3,222.1L526.0,230.4L527.2,234.0L530.3,236.1L529.1,239.5L530.4,244.4L535.1,245.4L536.2,249.8L540.9,252.9L540.4,254.1L544.5,254.9L546.6,257.3L545.2,259.8L538.9,258.8L537.4,257.0L535.4,256.8L532.6,258.8L530.6,262.5L531.7,268.4L528.5,269.4L531.0,276.6L529.8,280.4L527.3,279.8L524.6,281.6L522.2,280.6L516.9,273.8L513.4,273.3L506.4,274.9L505.7,270.8L502.7,270.9L497.9,265.4L491.2,262.1L482.2,261.5L474.8,262.8L474.1,265.3L470.5,267.7L469.3,271.3L469.9,273.3L468.7,274.2L460.6,271.5L457.6,269.2L456.2,264.6L450.7,257.9L449.9,254.2L454.1,252.1L451.6,250.4L451.0,248.4L455.2,241.4L451.6,218.8L445.8,212.1L442.4,211.2L437.8,206.2L437.5,203.6L442.2,201.6L442.7,199.8L439.9,198.2L439.4,187.2L436.8,179.3L438.0,178.0L436.9,172.8L439.5,171.9L437.6,168.3L440.4,168.6L444.6,159.4L444.2,156.5L446.9,152.3L450.4,150.3L452.4,145.8L454.2,145.8L455.2,144.0L452.9,142.5L455.0,138.5L463.4,139.1L466.8,132.9L470.6,131.5L469.4,130.3L470.1,127.4L472.1,125.8L472.3,121.9L475.8,115.6L484.0,114.2L486.5,110.6L494.1,113.5L501.0,112.8L506.0,114.5L511.6,113.4L514.3,117.8L515.7,117.5L515.8,119.9L517.7,118.7L517.6,122.0L523.1,124.0L524.6,126.8L530.8,130.8L531.4,133.1L534.1,135.1L535.0,140.3L538.4,144.8L539.4,149.4L542.4,151.9L542.7,154.1L544.2,154.5L543.3,155.1L545.5,161.7L551.5,165.8L555.7,171.0L558.5,178.0Z"/>
  <path data-estado="Chihuahua" d="M455.6,137.8L452.9,142.5L455.2,144.0L454.2,145.8L452.4,145.8L450.4,150.3L447.2,152.0L444.2,156.5L444.6,159.4L440.4,168.6L437.6,168.3L439.5,171.9L436.9,172.8L438.0,178.0L436.8,179.3L439.4,187.2L439.9,198.2L442.7,199.8L442.2,201.6L437.5,203.6L437.8,206.2L441.5,210.5L437.6,209.4L431.1,210.9L425.4,208.1L424.2,209.3L426.5,210.2L426.4,211.4L423.5,211.8L420.4,214.2L418.2,217.7L418.2,220.1L413.7,221.2L408.3,217.5L402.4,216.5L402.4,217.8L400.0,219.2L393.3,218.9L392.3,217.0L384.0,214.0L381.1,210.3L375.4,207.5L374.3,209.6L372.2,210.3L369.5,220.4L370.9,222.7L367.3,225.4L367.3,226.9L365.6,227.2L366.0,229.6L363.0,234.5L364.8,238.5L362.4,242.4L357.2,247.2L351.9,244.2L350.5,244.6L348.9,242.3L345.8,244.0L339.3,231.4L328.4,228.9L327.0,223.6L321.7,214.6L321.8,207.5L320.5,204.9L318.4,204.9L318.3,201.6L307.4,201.6L303.3,199.5L305.2,189.6L301.3,180.5L297.4,177.8L297.8,173.2L292.8,168.2L293.5,165.0L291.4,163.2L292.6,161.6L297.3,160.1L300.8,161.7L306.6,157.5L302.2,154.5L301.8,149.1L303.4,144.6L303.2,137.7L304.9,136.3L305.1,133.3L307.0,131.9L307.8,120.7L306.8,113.1L305.1,111.5L307.3,102.0L305.6,100.5L306.7,96.8L303.3,87.1L303.9,84.4L302.6,80.8L299.4,77.8L301.3,77.1L301.9,73.7L299.1,66.7L300.2,65.3L298.9,64.2L315.3,64.1L315.3,49.8L364.2,49.8L367.2,50.8L373.6,60.0L380.9,63.2L386.1,69.4L391.1,72.2L396.9,79.5L405.3,82.9L411.6,88.6L412.8,94.3L417.1,99.1L418.0,109.8L422.1,117.3L426.6,121.3L431.6,123.4L435.2,127.5L444.2,130.6L447.9,133.6L450.6,133.5L455.6,137.8Z"/>
  <path data-estado="Chiapas" d="M725.3,551.6L725.9,550.3L726.8,551.7L725.3,551.6Z M724.9,546.2L725.3,541.3L723.9,537.7L726.1,529.9L729.9,525.7L732.6,515.6L739.3,511.1L742.7,506.7L742.8,504.7L746.5,500.0L747.4,491.4L749.9,490.3L754.9,493.8L757.7,493.6L755.9,499.1L758.8,502.9L758.4,505.2L761.9,505.9L764.6,509.9L777.1,499.9L780.9,498.5L781.5,494.5L785.8,495.0L786.6,492.8L788.8,494.3L792.3,493.6L793.5,497.8L796.5,499.3L798.0,503.3L797.1,506.6L802.2,508.1L805.2,511.7L802.9,513.4L803.6,514.6L807.7,515.9L814.0,524.7L824.1,530.2L826.1,536.8L832.7,539.8L833.3,541.3L831.6,546.7L832.5,548.0L831.9,551.0L794.6,550.7L780.4,576.7L784.9,582.9L782.3,585.7L781.2,590.4L782.3,595.8L780.0,600.0L762.0,579.6L741.7,561.0L730.2,553.6L732.5,553.4L732.2,551.7L726.0,549.3L724.9,546.2Z"/>
  <path data-estado="Campeche" d="M800.2,464.6L800.8,465.6L799.4,466.6L798.2,465.9L796.2,468.3L795.6,467.5L792.8,469.3L790.9,468.7L800.2,464.6Z M833.6,400.1L833.4,408.9L838.2,409.5L839.3,411.9L842.2,412.9L844.6,411.0L850.8,422.3L855.3,424.8L860.3,432.1L862.3,437.8L873.0,448.7L873.1,457.1L871.4,458.5L870.7,466.7L872.2,471.7L871.6,473.3L872.6,473.9L872.9,482.2L869.3,488.3L869.5,495.4L816.2,495.4L816.2,493.4L810.8,492.0L806.2,488.2L799.4,487.1L798.4,492.0L794.9,493.0L789.1,491.0L784.1,486.4L780.8,480.1L781.1,478.2L774.3,473.3L773.0,468.7L786.2,467.2L788.0,467.3L790.8,470.0L790.1,471.4L788.3,469.8L787.5,470.9L786.7,470.3L786.8,473.0L788.5,471.4L790.9,473.4L798.8,475.4L806.7,471.7L808.8,466.1L807.2,464.1L806.2,465.0L804.8,464.2L806.3,460.5L801.2,464.2L804.1,461.1L817.6,452.5L823.8,445.9L824.2,436.0L831.6,427.0L830.5,423.7L830.1,409.7L833.6,400.1Z"/>
  <path data-estado="Baja California Sur" d="M125.4,477.5L126.8,477.6L126.6,478.5L125.1,478.7L125.4,477.5Z M240.0,446.9L239.7,448.5L240.0,446.9Z M243.2,256.2L242.1,257.9L243.2,256.2Z M111.6,173.8L113.1,175.2L111.6,173.8Z M201.3,257.5L199.5,267.4L200.3,269.0L198.8,271.0L203.4,280.9L200.0,277.3L201.1,276.1L200.1,273.7L196.3,272.8L201.3,257.5Z M240.7,243.4L241.3,247.0L239.8,245.1L240.7,243.4Z M233.1,243.4L233.8,244.8L232.9,245.2L233.1,243.4Z M142.6,172.0L181.0,172.1L187.8,181.7L194.6,184.8L198.8,195.5L206.4,199.3L204.6,203.2L208.7,207.7L207.8,211.4L211.5,216.3L212.7,217.1L214.5,215.5L210.5,211.4L209.4,206.2L210.3,205.7L217.8,212.0L218.0,216.7L221.2,217.7L220.5,221.0L222.7,223.5L224.7,231.1L223.7,235.5L225.3,241.5L228.0,243.8L230.7,249.4L233.7,249.7L236.9,261.5L241.2,265.8L244.1,272.3L241.7,278.1L243.4,286.6L247.2,291.5L253.7,292.4L250.9,292.9L251.1,294.6L253.0,294.4L254.4,292.3L253.5,288.6L254.6,286.8L256.4,287.1L258.1,290.0L263.0,293.0L263.6,296.6L268.3,296.1L268.2,300.8L272.0,304.5L272.0,308.8L278.7,312.4L280.0,315.8L279.7,322.3L276.8,326.5L271.6,328.9L267.5,333.3L264.3,334.1L262.7,333.0L260.1,328.4L258.4,320.1L253.4,311.8L246.2,308.0L232.7,294.5L216.5,284.2L215.1,279.9L210.3,281.5L209.6,277.5L206.7,273.8L206.1,274.6L202.0,273.2L201.7,266.7L200.2,272.2L199.7,267.4L201.1,266.3L200.7,261.8L202.9,257.3L203.3,246.9L199.5,234.6L196.1,232.0L193.2,226.5L190.6,226.9L185.3,224.3L175.0,216.0L171.1,208.9L170.7,210.1L169.0,209.3L171.7,207.3L171.3,202.6L167.8,210.4L163.5,208.5L163.9,207.7L162.2,208.0L160.1,211.3L158.3,211.5L154.7,208.8L152.8,204.6L150.7,203.1L148.2,202.4L146.9,203.3L142.9,198.6L134.3,196.7L132.7,195.1L132.2,189.3L125.6,185.7L122.2,180.6L120.7,181.2L117.6,179.4L115.4,175.4L132.3,177.7L136.7,176.5L136.1,175.7L137.4,174.4L138.4,174.7L137.9,178.0L140.4,180.3L144.3,182.8L145.6,180.6L148.0,181.4L150.9,185.0L151.6,183.6L149.7,181.8L150.2,176.7L148.2,175.1L147.2,178.5L143.5,179.9L141.6,178.5L143.1,174.2L142.6,172.0Z M252.8,281.0L254.8,282.9L253.7,285.3L251.9,282.8L252.8,281.0Z M169.3,211.0L171.8,213.1L168.4,211.9L169.3,211.0Z M205.4,281.3L209.1,281.5L212.4,284.0L213.5,287.8L205.4,281.3Z M265.3,286.1L268.6,293.5L266.4,292.2L265.3,286.1Z M232.4,232.1L231.9,235.2L230.6,235.0L227.5,240.0L229.1,233.0L232.4,232.1Z M202.3,244.5L202.0,249.8L202.3,244.5Z M242.7,262.8L246.1,265.1L247.8,269.8L244.2,267.9L242.3,264.5L242.7,262.8Z M251.8,279.2L252.1,281.1L251.8,279.2Z M208.4,187.8L209.2,188.6L208.1,188.7L208.4,187.8Z M202.5,194.1L203.7,195.2L203.3,196.6L202.5,194.1Z M234.5,461.8L236.5,463.9L235.5,466.6L232.8,463.9L234.5,461.8Z"/>
  <path data-estado="Baja California" d="M179.1,148.8L183.2,151.6L179.1,148.8Z M159.8,121.0L164.6,123.9L165.8,126.4L165.2,128.7L170.8,129.4L171.0,134.6L173.1,136.9L172.7,139.0L161.6,129.5L158.9,125.6L159.8,121.0Z M111.6,158.5L113.2,166.1L112.5,169.5L111.2,169.6L109.7,167.7L107.4,168.0L110.7,163.7L110.2,161.1L111.6,158.5Z M143.4,172.0L139.3,174.1L138.9,173.3L143.4,168.0L142.6,169.9L143.4,172.0Z M189.0,147.1L189.0,149.0L187.7,149.1L187.3,147.3L189.0,147.1Z M123.3,27.1L120.3,27.2L116.9,33.5L118.4,36.2L117.1,44.5L123.7,48.6L124.2,54.9L122.1,59.1L121.0,69.6L123.4,73.4L122.7,74.8L126.0,76.8L126.5,79.1L126.6,86.4L128.6,90.9L127.5,100.6L131.4,107.7L135.1,110.6L135.6,113.6L137.0,114.8L140.9,114.8L157.5,129.6L157.3,132.7L160.3,136.7L159.8,140.1L160.8,142.0L163.5,140.1L165.1,141.5L165.7,144.9L168.5,143.7L169.7,144.4L173.0,154.4L176.0,156.0L178.8,155.3L180.5,157.1L179.7,161.3L182.0,164.4L182.8,174.4L181.0,172.1L144.2,172.0L144.0,169.3L145.0,170.7L145.8,169.8L144.0,168.7L143.6,166.7L145.4,163.4L143.3,162.3L145.6,156.5L144.1,153.0L142.3,152.3L142.2,150.0L139.1,149.5L134.8,142.4L129.5,139.4L128.5,135.5L126.5,135.4L119.3,127.1L112.4,125.0L110.6,122.1L103.2,118.9L97.6,114.2L97.6,110.2L94.4,107.7L95.1,103.8L93.6,95.8L90.4,92.5L89.4,93.1L87.4,91.6L87.3,81.9L81.0,75.9L78.9,75.6L79.8,69.8L73.6,61.0L71.3,60.1L68.7,56.6L69.9,56.1L69.9,53.7L67.2,51.0L69.6,51.9L71.0,48.0L63.2,42.3L62.1,36.0L58.6,33.8L56.1,26.0L126.0,20.0L123.4,23.3L123.3,27.1Z M23.0,132.5L22.4,135.1L23.9,136.5L24.2,139.7L22.6,142.3L20.0,136.0L20.1,133.8L23.0,132.5Z"/>
  <path data-estado="Aguascalientes" d="M473.3,371.8L470.5,367.7L476.9,355.0L484.3,351.3L487.0,348.6L489.4,351.8L494.6,354.9L496.6,362.8L498.9,365.4L493.9,367.7L490.9,371.9L485.1,373.9L480.6,371.0L475.7,370.5L473.3,371.8Z"/>
</svg>