<svg xmlns="http://www.w3.org/2000/svg" viewBox="0 0 900 500" id="world-base-svg">
  <path data-country="Afghanistan" d="M703.0,138.6L707.5,139.4L714.4,132.3L723.0,133.9L727.0,129.7L729.6,135.2L737.9,134.0L729.6,135.9L723.3,150.3L710.4,158.3L702.2,156.8L703.0,138.6Z"/>
  <path data-country="Angola" d="M590.8,268.4L593.7,275.2L604.3,272.8L605.4,284.6L609.8,284.1L610.0,290.3L604.8,290.3L608.0,304.8L579.3,304.1L584.3,285.3L580.6,269.7L590.8,268.4Z M581.1,267.8L581.6,263.9L581.1,267.8Z"/>
  <path data-country="Albania" d="M601.5,119.2L600.4,126.2L599.3,116.6L601.5,119.2Z"/>
  <path data-country="United Arab Emirates" d="M678.9,174.2L685.0,174.6L690.7,169.6L687.5,179.7L680.0,178.1L678.9,174.2Z"/>
  <path data-country="Argentina" d="M386.2,422.5L378.4,421.5L378.4,414.5L386.2,422.5Z M387.6,319.0L392.9,318.9L405.6,328.6L403.5,334.8L410.8,335.6L414.7,329.8L415.9,334.1L405.9,344.4L403.8,357.6L408.0,365.3L401.9,371.0L394.2,371.3L393.1,378.2L387.2,378.3L391.4,383.0L381.8,392.3L385.9,397.6L377.2,408.5L379.6,413.6L370.2,412.5L366.5,404.1L371.9,390.0L369.6,382.0L375.5,356.9L373.7,348.0L379.0,326.6L384.3,318.2L387.6,319.0Z"/>
  <path data-country="Armenia" d="M659.0,121.6L663.9,122.5L666.3,128.8L659.0,121.6Z"/>
  <path data-country="French Southern and Antarctic Lands" d="M722.3,402.0L725.7,405.3L721.9,405.5L722.3,402.0Z"/>
  <path data-country="Australia" d="M13.5,377.5L20.7,377.7L19.8,385.0L15.1,386.1L13.5,377.5Z M8.9,293.0L13.4,296.8L16.0,309.2L32.1,329.0L33.8,340.6L25.0,367.0L15.8,372.0L12.6,368.4L9.0,371.3L1.6,368.8Z M900.0,366.9L895.5,357.5L892.1,360.2L894.5,352.8L890.0,359.0L878.3,348.4L841.6,359.5L837.6,356.9L839.2,348.8L833.3,331.6L835.4,318.0L852.1,311.5L864.2,294.5L874.1,296.8L876.5,289.2L881.4,287.9L879.6,285.2L891.2,287.1L888.8,296.9L898.2,304.3Z M0.5,305.3L6.3,283.3L8.9,293.0Z"/>
  <path data-country="Austria" d="M592.4,99.6L586.6,104.9L573.7,102.8L582.3,101.7L584.0,97.3L592.4,99.6Z"/>
  <path data-country="Azerbaijan" d="M662.5,125.8L665.4,128.9L662.5,125.8Z M668.4,121.2L671.5,119.3L676.0,124.2L672.2,130.2L670.2,126.3L666.3,128.8L662.4,121.1L668.4,121.2Z"/>
  <path data-country="Burundi" d="M623.3,264.1L622.6,258.9L626.2,257.5L623.3,264.1Z"/>
  <path data-country="Belgium" d="M558.3,89.5L565.4,91.2L564.2,95.2L558.3,89.5Z"/>
  <path data-country="Benin" d="M556.7,230.4L551.9,217.3L556.2,211.8L559.5,216.5L556.7,230.4Z"/>
  <path data-country="Burkina Faso" d="M542.9,219.9L536.5,217.6L536.9,213.4L540.0,207.9L550.9,203.3L555.4,212.7L542.6,215.7L542.9,219.9Z"/>
  <path data-country="Bangladesh" d="M781.7,181.1L780.9,185.4L778.5,178.9L772.6,181.1L771.4,167.4L780.9,171.9L777.9,176.6L781.7,181.1Z"/>
  <path data-country="Bulgaria" d="M606.6,111.8L621.4,113.4L620.0,118.7L607.4,120.8L606.6,111.8Z"/>
  <path data-country="The Bahamas" d="M356.2,175.8L354.5,171.2L356.2,175.8Z M355.5,166.9L352.5,166.3L355.5,166.9Z"/>
  <path data-country="Bosnia and Herzegovina" d="M597.5,109.8L596.4,116.7L589.4,109.9L597.5,109.8Z"/>
  <path data-country="Belarus" d="M608.7,81.5L620.4,74.5L627.2,76.4L631.7,83.3L626.4,89.6L608.8,88.8L608.7,81.5Z"/>
  <path data-country="Belize" d="M327.1,194.3L329.7,192.7L327.7,200.4L327.1,194.3Z"/>
  <path data-country="Bolivia" d="M392.9,318.9L380.4,321.5L378.1,313.7L376.2,284.2L383.4,281.0L386.7,280.5L389.2,288.9L398.7,293.0L399.6,300.8L404.4,300.9L406.3,306.8L404.6,313.1L395.5,311.4L392.9,318.9Z"/>
  <path data-country="Brazil" d="M405.9,344.4L415.9,331.6L410.5,319.9L405.2,319.0L404.4,300.9L399.6,300.8L398.7,293.0L386.5,286.1L386.7,280.5L374.8,284.8L373.8,279.7L366.9,279.6L365.0,273.5L367.8,266.5L375.3,263.4L375.5,244.6L386.1,247.5L391.6,243.1L388.0,237.3L399.5,233.6L402.4,245.9L417.7,243.4L421.7,236.9L424.0,250.2L437.7,254.8L438.5,258.4L450.1,259.0L461.0,266.1L463.2,272.9L453.3,290.8L447.6,318.6L430.9,327.8L427.8,339.6L416.6,355.5L415.5,350.1L405.9,344.4Z"/>
  <path data-country="Brunei" d="M835.5,235.9L838.6,233.0L835.5,235.9Z"/>
  <path data-country="Bhutan" d="M779.2,163.2L780.1,166.1L772.1,165.3L775.0,161.6L779.2,163.2Z"/>
  <path data-country="Botswana" d="M614.1,307.9L623.6,319.0L614.2,329.6L608.3,329.0L602.2,333.8L599.7,318.3L602.3,307.0L612.7,305.2L614.1,307.9Z"/>
  <path data-country="Central African Republic" d="M588.2,226.8L607.2,215.2L618.4,233.6L606.0,237.4L598.7,234.3L590.0,242.9L586.2,235.2L588.2,226.8Z"/>
  <path data-country="Canada" d="M390.8,104.5L395.0,104.9L390.8,104.5Z M395.5,96.5L388.7,94.1L395.5,96.5Z M241.2,98.4L229.1,91.3L241.2,98.4Z M409.7,91.6L408.0,94.3L416.3,96.1L417.3,104.2L414.4,100.8L411.5,103.5L401.8,101.2L411.5,88.8L409.7,91.6Z M218.2,81.1L222.1,86.9L218.2,81.1Z M351.8,55.8L349.1,56.2L351.8,55.8Z M345.3,54.0L340.0,54.8L345.3,54.0Z M337.1,44.8L349.7,50.9L331.9,51.4L337.1,44.8Z M360.3,40.2L358.0,37.0L362.2,37.5L360.3,40.2Z M310.9,34.0L300.5,33.1L304.5,30.8L310.9,34.0Z M323.6,32.8L331.6,40.0L336.2,31.6L343.4,32.3L346.9,38.8L335.6,42.0L317.1,56.2L313.3,65.8L319.3,71.6L344.3,77.7L350.2,90.0L353.5,85.7L350.4,79.2L358.6,73.3L353.7,66.2L356.7,63.0L354.7,55.3L376.0,59.2L380.9,68.1L388.5,61.5L395.5,73.9L406.7,79.3L410.8,87.0L399.9,93.0L384.0,93.0L372.2,103.7L387.4,96.1L388.8,105.5L396.2,106.6L398.7,103.1L400.5,106.5L384.7,113.7L388.9,108.5L382.2,108.9L376.9,101.7L371.2,109.3L362.8,109.4L343.3,119.8L343.6,108.3L329.1,99.1L313.0,95.7L242.6,96.9L231.4,91.2L223.7,80.4L225.0,75.3L211.3,63.2L206.4,65.9L197.5,61.5L197.5,32.1L208.7,34.7L229.7,29.7L261.9,34.7L266.3,38.5L277.8,39.4L284.6,35.0L296.4,38.6L305.8,35.7L309.7,39.7L314.4,34.2L308.8,31.0L312.0,25.2L323.6,32.8Z M264.6,21.5L275.2,22.0L279.5,26.1L279.0,21.6L283.7,21.6L297.3,32.5L266.7,35.8L256.7,31.4L269.0,30.1L251.5,26.4L264.6,21.5Z M288.8,20.6L282.7,20.4L288.8,20.6Z M359.1,21.6L347.9,19.7L359.1,21.6Z M333.6,21.4L344.2,19.5L348.1,24.8L355.4,22.7L369.4,26.4L382.6,33.8L378.0,35.2L395.4,41.1L390.2,46.9L380.0,42.9L388.3,51.9L378.0,50.8L384.6,56.5L362.9,47.9L355.7,49.3L355.3,45.9L365.1,45.5L367.7,38.4L352.6,30.7L326.2,28.9L328.8,27.4L325.3,27.4L326.4,21.5L335.4,19.4L333.6,21.4Z M299.1,19.2L306.6,19.5L308.2,26.1L293.8,23.4L298.9,22.8L296.1,20.8L299.1,19.2Z M317.0,22.6L311.5,24.8L310.0,20.5L323.7,19.2L317.0,22.6Z M248.9,26.9L235.2,25.4L240.2,19.8L237.7,17.8L261.2,20.4L248.9,26.9Z M316.0,15.7L307.9,15.9L316.0,15.7Z M303.8,10.2L304.6,15.6L293.7,13.9L303.8,10.2Z M279.5,11.9L285.7,14.1L269.4,17.4L265.3,16.5L270.5,15.1L255.7,14.9L261.5,11.0L279.5,11.9Z M313.3,9.1L350.4,15.9L325.6,17.1L307.2,10.2L313.3,9.1Z M259.5,7.4L257.2,10.8L242.9,12.1L259.5,7.4Z M315.4,7.8L308.9,6.8L315.4,7.8Z M274.5,7.2L266.2,7.1L274.5,7.2Z M275.8,4.4L268.6,5.0L275.8,4.4Z M310.4,6.1L303.4,3.5L310.4,6.1Z M299.8,5.2L287.1,5.1L289.5,4.1L286.3,2.2L299.8,5.2Z M332.5,1.1L335.5,2.1L323.0,5.6L308.2,0.0L332.5,1.1Z M378.8,0.0L395.4,0.0L357.7,2.1L361.5,4.6L348.6,11.9L326.3,11.0L329.4,6.6L337.6,7.7L330.1,5.1L337.3,2.0L332.7,0.0L345.4,0.0L321.0,0.0L378.8,0.0Z"/>
  <path data-country="Switzerland" d="M574.0,101.5L574.8,105.3L565.1,105.4L566.8,101.4L574.0,101.5Z"/>
  <path data-country="Chile" d="M378.4,414.5L378.4,421.5L382.6,421.6L379.6,423.8L363.3,415.1L372.2,419.0L378.4,414.5Z M379.5,317.2L382.5,321.8L373.7,348.0L375.5,356.9L369.6,382.0L371.9,390.0L366.5,404.1L370.2,412.5L378.6,413.4L371.4,418.3L362.6,413.3L361.0,402.1L364.7,396.7L360.9,395.8L368.2,382.4L364.2,385.1L376.0,304.9L379.5,317.2Z"/>
  <path data-country="China" d="M825.8,191.6L821.6,189.5L827.0,187.3L825.8,191.6Z M869.1,94.5L877.5,100.7L887.6,98.5L882.7,108.9L877.6,109.5L876.6,117.5L852.6,128.4L854.1,122.0L843.8,128.9L849.3,133.9L855.9,133.0L847.9,140.9L854.8,151.0L854.2,161.8L846.6,173.3L826.1,186.4L813.3,177.0L804.1,180.3L804.5,183.8L798.1,180.9L794.0,175.3L796.7,164.0L790.3,158.0L772.0,164.7L752.8,155.7L746.8,151.5L747.3,142.7L734.8,129.7L734.6,125.3L750.3,118.4L749.9,109.6L769.4,95.9L777.4,103.5L777.4,108.5L788.3,111.7L790.9,116.5L812.4,120.0L826.0,116.0L829.7,109.1L849.2,104.1L838.7,99.6L841.7,94.1L848.2,93.3L852.5,83.6L864.9,85.0L869.1,94.5Z"/>
  <path data-country="Ivory Coast" d="M542.9,234.4L530.7,236.4L529.4,218.3L542.9,219.9L542.9,234.4Z"/>
  <path data-country="Cameroon" d="M582.7,242.9L574.1,242.9L571.2,236.0L573.1,229.9L579.4,228.2L586.2,209.8L586.2,235.2L589.9,244.6L582.7,242.9Z"/>
  <path data-country="Democratic Republic of the Congo" d="M627.1,239.0L622.6,258.9L626.9,276.1L621.1,278.6L624.2,291.4L617.9,286.3L605.4,284.6L604.3,272.8L593.7,275.2L590.8,268.4L580.8,269.1L590.0,261.0L598.7,234.3L606.0,237.4L618.4,233.6L627.1,239.0Z"/>
  <path data-country="Republic of the Congo" d="M582.5,264.9L577.7,262.4L581.4,256.1L585.7,256.2L582.7,242.9L589.9,244.6L592.8,238.3L596.1,239.0L590.0,261.0L582.5,264.9Z"/>
  <path data-country="Colombia" d="M361.6,250.5L352.5,244.7L357.2,238.0L355.6,225.9L362.7,215.4L371.5,211.3L366.7,221.4L370.1,228.2L381.6,231.0L382.8,246.1L375.5,244.6L375.3,263.4L374.9,258.5L367.3,257.2L361.6,250.5Z"/>
  <path data-country="Costa Rica" d="M342.6,224.3L335.8,219.0L336.1,214.9L340.9,215.8L342.6,224.3Z"/>
  <path data-country="Cuba" d="M344.3,177.5L364.3,187.3L355.6,188.0L353.2,182.5L345.5,179.3L337.6,181.6L344.3,177.5Z"/>
  <path data-country="Northern Cyprus" d="M631.8,140.2L636.4,138.5L631.8,140.2Z"/>
  <path data-country="Cyprus" d="M634.9,140.4L630.6,140.3L634.9,140.4Z"/>
  <path data-country="Czech Republic" d="M592.4,98.1L585.8,98.3L580.6,92.9L593.9,92.6L597.1,95.3L592.4,98.1Z"/>
  <path data-country="Germany" d="M574.8,78.2L585.9,83.6L587.5,90.3L580.6,92.9L584.0,97.3L582.3,101.7L568.7,101.2L570.2,96.8L565.5,95.4L567.3,82.9L574.8,78.2Z"/>
  <path data-country="Djibouti" d="M657.7,210.3L654.4,215.5L657.7,210.3Z"/>
  <path data-country="Denmark" d="M581.7,76.2L580.2,78.7L577.3,75.7L581.7,76.2Z M577.3,73.6L574.8,78.2L570.3,76.5L571.4,71.5L576.5,69.6L577.3,73.6Z"/>
  <path data-country="Dominican Republic" d="M370.7,188.4L379.2,191.8L371.5,195.0L370.7,188.4Z"/>
  <path data-country="Algeria" d="M580.0,176.7L557.9,190.4L528.3,164.4L528.3,159.9L546.7,149.2L547.0,138.4L571.1,134.5L568.8,143.4L574.5,158.0L573.3,168.5L580.0,176.7Z"/>
  <path data-country="Ecuador" d="M349.2,260.6L349.8,247.6L352.9,245.7L361.6,250.5L352.0,265.5L349.2,260.6Z"/>
  <path data-country="Egypt" d="M637.3,157.8L634.8,163.6L630.8,157.0L642.2,181.2L612.5,181.2L612.9,151.3L635.7,152.4L637.3,157.8Z"/>
  <path data-country="Eritrea" d="M655.9,210.8L650.1,204.6L641.1,204.9L646.0,193.8L655.9,210.8Z"/>
  <path data-country="Spain" d="M527.4,119.1L530.1,113.3L557.6,119.1L552.0,121.8L548.3,132.4L536.6,137.7L531.2,133.0L533.3,119.1L527.4,119.1Z"/>
  <path data-country="Estonia" d="M610.8,69.4L608.3,65.0L620.0,64.1L618.2,70.4L610.8,69.4Z"/>
  <path data-country="Ethiopia" d="M644.8,203.3L654.0,208.0L659.2,221.3L669.5,225.0L662.4,234.4L648.9,239.3L640.4,236.1L632.4,225.7L644.8,203.3Z"/>
  <path data-country="Finland" d="M621.5,34.2L625.1,51.4L628.8,53.5L620.2,60.9L607.2,63.0L602.6,54.4L613.5,46.5L608.8,37.7L601.6,34.0L611.8,35.5L619.3,30.7L621.5,34.2Z"/>
  <path data-country="Fiji" d="M95.9,304.2L93.5,306.8L95.9,304.2Z M98.4,302.5L100.0,300.2L98.4,302.5Z"/>
  <path data-country="Falkland Islands" d="M397.0,412.0L405.6,411.1L397.0,412.0Z"/>
  <path data-country="France" d="M573.9,118.3L571.9,120.1L573.5,115.6L573.9,118.3Z M559.0,92.6L570.2,96.8L565.1,104.0L568.6,113.5L554.6,117.7L546.2,115.5L547.0,106.2L538.5,97.9L546.0,98.0L545.2,94.4L556.3,90.2L559.0,92.6Z"/>
  <path data-country="Gabon" d="M577.7,262.4L572.1,252.4L573.7,246.8L582.4,242.7L585.7,256.2L581.4,256.1L577.7,262.4Z"/>
  <path data-country="United Kingdom" d="M535.8,79.5L531.1,81.1L531.1,77.7L535.8,79.5Z M542.5,66.8L539.8,70.1L545.1,69.7L542.2,75.1L554.2,85.2L553.6,89.7L536.9,93.9L541.5,89.3L536.8,87.5L538.6,82.8L542.6,81.3L534.6,72.5L537.5,66.8L542.5,66.8Z"/>
  <path data-country="Georgia" d="M653.9,120.2L650.2,113.9L663.7,117.2L666.6,121.3L653.9,120.2Z"/>
  <path data-country="Ghana" d="M552.7,231.5L542.9,234.4L542.6,215.7L550.1,215.6L552.7,231.5Z"/>
  <path data-country="Guinea" d="M528.9,226.0L522.2,218.6L516.9,222.2L512.2,215.5L515.7,210.7L527.2,211.5L528.9,226.0Z"/>
  <path data-country="Gambia" d="M507.9,208.9L515.4,207.8L507.9,208.9Z"/>
  <path data-country="Guinea Bissau" d="M512.2,215.5L508.3,211.3L515.7,210.7L512.2,215.5Z"/>
  <path data-country="Equatorial Guinea" d="M573.7,246.8L574.1,242.9L578.2,242.9L578.2,246.7L573.7,246.8Z"/>
  <path data-country="Greece" d="M609.2,138.4L615.7,139.7L609.2,138.4Z M616.5,120.1L607.0,123.5L610.1,132.3L607.9,136.2L604.2,134.9L600.5,127.1L602.6,122.4L616.5,120.1Z"/>
  <path data-country="Greenland" d="M433.1,0.0L519.5,0.0L499.9,0.0L505.7,0.0L500.7,3.9L503.8,9.4L495.8,10.5L500.4,12.2L498.3,15.1L501.6,17.8L491.1,20.9L494.3,24.4L488.0,24.0L495.6,29.2L486.1,26.8L484.1,30.5L494.1,30.8L450.5,45.4L443.0,54.1L441.6,62.2L438.0,62.4L429.3,59.8L420.9,51.2L415.1,40.0L422.8,31.5L413.3,32.5L414.1,28.7L421.5,29.5L410.4,26.1L413.2,23.2L406.7,16.5L396.8,12.2L378.7,12.3L371.5,9.3L383.1,8.2L366.8,6.1L386.7,0.8L379.9,0.0L438.7,0.0L433.1,0.0Z"/>
  <path data-country="Guatemala" d="M324.8,207.1L319.4,204.6L323.8,199.8L322.5,194.3L327.1,194.3L329.4,200.9L324.8,207.1Z"/>
  <path data-country="French Guiana" d="M418.6,242.2L413.7,242.8L415.1,232.0L420.9,237.0L418.6,242.2Z"/>
  <path data-country="Guyana" d="M400.6,223.9L407.1,231.3L404.9,237.3L408.7,244.1L403.6,246.0L396.5,231.4L400.6,223.9Z"/>
  <path data-country="Honduras" d="M331.7,209.4L326.6,204.9L330.2,200.4L342.1,203.1L331.7,209.4Z"/>
  <path data-country="Croatia" d="M597.1,106.5L597.5,109.8L589.4,109.9L596.1,117.3L584.1,108.9L591.4,104.7L597.1,106.5Z"/>
  <path data-country="Haiti" d="M367.0,187.8L370.7,188.4L370.7,193.6L363.9,192.7L369.2,191.7L367.0,187.8Z"/>
  <path data-country="Hungary" d="M590.5,103.6L592.4,99.6L606.6,99.5L600.6,105.9L590.5,103.6Z"/>
  <path data-country="Indonesia" d="M851.8,282.0L847.4,279.9L851.8,282.0Z M861.1,281.7L858.6,282.0L862.4,277.8L861.1,281.7Z M844.8,275.3L847.8,277.2L841.9,278.2L844.8,275.3Z M857.3,275.3L849.8,277.5L857.3,275.3Z M821.6,271.2L839.3,276.2L813.4,271.4L815.1,268.4L821.6,271.2Z M868.1,260.8L865.0,259.9L868.1,260.8Z M876.2,259.7L877.1,262.1L869.7,260.6L876.2,259.7Z M885.4,253.6L888.6,260.5L893.6,255.3L899.8,257.5Z M2.5,258.1L2.6,278.5L0.4,275.9Z M897.8,275.3L894.0,276.3L894.8,266.9L882.5,262.9L880.0,258.8L884.2,256.9L876.3,252.9L885.4,253.6Z M863.1,245.6L850.5,249.3L852.3,254.4L858.4,251.9L853.8,256.0L857.9,266.7L852.4,258.2L849.5,267.7L846.9,258.8L850.1,248.2L863.1,245.6Z M871.7,246.5L870.3,252.8L869.8,243.2L871.7,246.5Z M844.7,244.3L847.5,247.2L844.5,247.5L840.4,262.5L825.6,259.2L824.2,243.7L826.3,247.6L836.6,245.5L842.5,236.5L844.7,244.3Z M814.5,268.3L806.5,263.2L788.2,232.9L793.7,233.6L809.6,249.7L815.3,259.6L814.5,268.3Z"/>
  <path data-country="India" d="M744.6,139.1L746.8,151.5L752.8,155.7L750.2,160.0L758.3,164.5L770.2,167.5L771.8,162.2L774.4,166.5L780.1,166.1L779.2,163.2L790.3,158.0L793.5,162.9L787.8,167.0L781.7,181.1L777.9,176.6L780.9,171.9L771.4,167.4L772.2,182.2L767.4,182.8L750.8,200.3L749.6,217.6L743.8,225.1L733.8,200.0L731.6,183.3L726.2,184.8L720.4,176.0L727.6,173.9L723.8,165.8L738.1,149.2L734.4,142.8L744.6,139.1Z"/>
  <path data-country="Ireland" d="M534.5,81.7L533.0,86.7L525.1,88.1L525.8,81.6L531.1,77.7L534.5,81.7Z"/>
  <path data-country="Iran" d="M684.8,133.8L691.5,130.9L702.8,136.0L702.2,156.8L708.3,166.4L703.7,171.6L693.5,169.6L691.2,165.2L683.7,166.2L675.3,155.8L671.4,156.5L663.5,143.9L665.2,138.5L660.3,126.8L670.2,126.3L677.1,134.8L684.8,133.8Z"/>
  <path data-country="Iraq" d="M663.6,137.6L671.4,156.5L666.4,159.1L648.0,149.5L647.0,145.7L656.9,133.2L663.6,137.6Z"/>
  <path data-country="Iceland" d="M513.7,42.3L516.0,46.5L503.4,51.6L493.1,50.1L495.6,48.7L490.1,47.2L494.4,45.7L489.2,45.0L513.7,42.3Z"/>
  <path data-country="Israel" d="M639.3,147.8L637.3,157.8L635.7,152.4L639.3,147.8Z"/>
  <path data-country="Italy" d="M588.8,130.5L587.7,135.6L581.1,132.5L588.8,130.5Z M573.0,121.2L572.0,128.4L573.0,121.2Z M580.9,103.9L584.8,107.5L580.8,108.2L581.5,112.2L596.2,124.5L592.2,123.6L590.3,131.3L588.5,124.8L575.5,112.7L567.5,111.7L567.1,106.3L580.9,103.9Z"/>
  <path data-country="Jamaica" d="M356.1,192.2L359.5,194.1L356.1,192.2Z"/>
  <path data-country="Jordan" d="M638.9,148.8L647.0,145.7L648.0,149.5L642.5,151.5L645.0,154.7L640.2,158.8L637.3,157.8L638.9,148.8Z"/>
  <path data-country="Japan" d="M886.6,143.3L880.9,146.9L886.6,143.3Z M897.4,141.7L889.5,145.4L887.7,141.9L877.5,144.1L880.0,146.4L876.7,153.0L873.5,145.9L898.6,130.6Z M0.8,121.3L4.8,125.0L2.4,133.9Z M9.8,112.0L13.3,111.3L13.9,114.8L8.0,118.8L4.0,116.6L2.7,120.0Z M0.8,114.6L4.9,107.7L9.8,112.0Z"/>
  <path data-country="Kazakhstan" d="M727.4,117.9L720.6,122.9L712.3,113.3L705.0,114.0L696.3,107.5L689.8,109.4L689.9,120.9L681.3,119.4L675.8,110.6L682.6,108.6L682.6,103.6L671.5,104.5L666.9,95.8L676.9,88.5L703.3,91.3L699.9,87.6L703.6,81.2L722.7,76.9L733.6,82.8L742.2,79.7L750.1,91.0L758.5,90.4L768.4,96.2L749.9,109.6L750.6,117.7L735.5,114.7L727.4,117.9Z"/>
  <path data-country="Kenya" d="M652.5,252.7L648.0,264.6L634.8,253.0L637.6,244.0L635.0,236.7L638.2,232.8L645.3,238.8L654.6,237.8L652.5,252.7Z"/>
  <path data-country="Kyrgyzstan" d="M727.4,117.9L735.5,114.7L750.6,117.7L729.5,127.3L723.7,126.5L732.6,122.3L726.1,120.3L727.4,117.9Z"/>
  <path data-country="Cambodia" d="M808.7,216.8L807.5,205.5L818.5,205.6L815.6,215.7L808.7,216.8Z"/>
  <path data-country="South Korea" d="M870.9,129.3L873.7,138.6L866.2,142.5L865.4,132.0L870.9,129.3Z"/>
  <path data-country="Kosovo" d="M601.9,118.6L602.0,114.8L601.9,118.6Z"/>
  <path data-country="Kuwait" d="M669.9,156.3L669.3,160.9L666.4,159.1L669.9,156.3Z"/>
  <path data-country="Laos" d="M813.0,205.4L809.9,193.0L802.6,195.3L800.3,186.2L805.4,179.8L818.3,200.3L818.5,205.6L813.0,205.4Z"/>
  <path data-country="Lebanon" d="M639.6,146.0L641.1,141.9L639.6,146.0Z"/>
  <path data-country="Liberia" d="M530.7,236.4L521.4,228.8L524.4,223.7L528.9,226.0L530.7,236.4Z"/>
  <path data-country="Libya" d="M587.1,178.6L575.8,173.8L573.3,168.5L573.7,155.3L578.7,146.4L597.7,155.4L602.1,147.8L612.3,150.3L612.5,187.5L589.7,176.8L587.1,178.6Z"/>
  <path data-country="Sri Lanka" d="M754.5,226.5L750.9,231.3L750.4,219.3L754.5,226.5Z"/>
  <path data-country="Lesotho" d="M622.4,340.5L619.4,345.8L617.5,343.4L622.4,340.5Z"/>
  <path data-country="Lithuania" d="M606.8,80.2L602.6,74.9L616.2,76.2L613.8,80.4L606.8,80.2Z"/>
  <path data-country="Latvia" d="M602.6,74.9L604.0,70.6L612.9,68.8L620.4,74.5L602.6,74.9Z"/>
  <path data-country="Morocco" d="M537.0,138.3L544.6,140.1L546.7,149.2L528.3,159.9L528.0,165.2L521.5,166.0L513.1,182.8L507.4,183.1L513.9,168.0L526.1,156.5L526.7,148.2L537.0,138.3Z"/>
  <path data-country="Moldova" d="M616.5,99.3L621.7,99.6L625.1,104.9L620.6,107.8L616.5,99.3Z"/>
  <path data-country="Madagascar" d="M673.9,289.0L675.9,299.1L667.7,327.9L663.5,330.0L658.4,321.2L659.9,304.4L673.9,289.0Z"/>
  <path data-country="Mexico" d="M307.1,169.2L305.3,179.9L313.9,193.3L323.1,189.7L324.3,184.4L333.0,183.3L330.4,192.9L322.5,194.3L323.8,199.8L319.4,204.6L287.5,189.6L284.9,178.8L263.1,150.6L274.9,178.7L262.4,163.4L264.6,160.7L257.2,148.3L283.7,150.8L290.1,158.5L297.6,158.2L302.4,167.6L307.1,169.2Z"/>
  <path data-country="Macedonia" d="M601.5,119.2L606.0,117.7L607.4,120.8L602.6,122.4L601.5,119.2Z"/>
  <path data-country="Mali" d="M519.6,204.3L536.2,201.6L533.9,172.0L560.7,190.1L559.1,201.3L540.0,207.9L534.9,218.4L529.9,218.1L527.2,211.5L521.4,212.3L519.6,204.3Z"/>
  <path data-country="Myanmar" d="M798.9,186.9L793.4,192.4L799.0,212.8L796.4,219.0L792.9,197.1L785.5,199.9L780.9,185.4L783.3,174.8L793.3,161.7L796.7,164.0L794.0,175.3L802.9,181.7L798.9,186.9Z"/>
  <path data-country="Montenegro" d="M599.5,117.2L596.1,117.3L598.0,114.0L599.5,117.2Z"/>
  <path data-country="Mongolia" d="M769.4,95.9L780.6,91.2L793.1,94.6L797.2,87.4L821.2,96.0L841.7,94.1L839.4,100.9L849.4,103.0L829.7,109.1L826.0,116.0L812.4,120.0L790.9,116.5L788.3,111.7L777.4,108.5L777.4,103.5L769.4,95.9Z"/>
  <path data-country="Mozambique" d="M636.4,286.0L650.8,282.2L651.9,295.9L637.0,311.8L638.6,325.4L630.2,333.5L628.0,319.5L632.1,302.2L625.4,296.2L633.0,293.7L637.6,302.5L636.4,286.0Z"/>
  <path data-country="Mauritania" d="M519.6,204.3L513.6,198.1L508.8,199.6L507.3,184.4L517.7,183.4L520.1,169.0L528.3,169.1L528.3,164.4L537.7,172.0L533.9,172.0L536.7,199.4L519.6,204.3Z"/>
  <path data-country="Malawi" d="M636.4,286.0L637.6,302.5L631.7,292.9L631.9,278.8L636.4,286.0Z"/>
  <path data-country="Malaysia" d="M802.7,230.6L808.5,234.8L810.6,246.0L803.5,241.4L800.2,229.8L802.7,230.6Z M846.5,236.0L839.7,236.5L836.6,245.5L824.6,245.8L838.4,236.5L841.8,228.4L848.0,233.1L846.5,236.0Z"/>
  <path data-country="Namibia" d="M590.9,339.3L579.3,304.1L611.7,304.2L602.3,307.0L599.7,338.9L590.9,339.3Z"/>
  <path data-country="New Caledonia" d="M64.4,315.9L66.9,320.0L60.1,312.8L64.4,315.9Z"/>
  <path data-country="Niger" d="M555.4,212.7L550.9,203.3L559.1,201.3L560.7,190.1L580.0,176.7L587.1,178.6L589.8,186.3L583.9,205.1L585.5,211.0L583.3,207.6L572.5,209.9L563.6,206.7L559.0,213.6L555.4,212.7Z"/>
  <path data-country="Nigeria" d="M571.3,235.1L564.7,236.7L560.8,230.4L556.7,230.4L560.3,207.7L583.3,207.6L586.0,213.8L579.4,228.2L575.3,228.0L571.3,235.1Z"/>
  <path data-country="Nicaragua" d="M335.7,215.3L330.8,209.7L342.1,203.1L340.9,215.8L335.7,215.3Z"/>
  <path data-country="Netherlands" d="M565.2,82.8L565.4,91.2L558.3,89.5L565.2,82.8Z"/>
  <path data-country="Norway" d="M620.4,27.5L628.2,29.8L625.0,30.7L627.8,32.6L621.5,34.2L619.3,30.7L611.8,35.5L595.0,35.7L581.4,49.8L577.6,66.1L564.2,66.9L562.5,56.3L586.9,38.1L598.0,31.8L620.4,27.5Z M611.8,6.7L601.8,7.3L611.8,6.7Z M595.6,0.9L603.9,3.3L589.8,10.1L576.1,1.1L595.6,0.9Z M613.6,0.0L618.5,0.0L593.4,0.0L613.6,0.0Z"/>
  <path data-country="Nepal" d="M770.3,162.9L768.1,167.5L750.2,160.0L753.8,154.9L770.3,162.9Z"/>
  <path data-country="New Zealand" d="M82.6,377.9L85.6,380.5L76.5,393.5L66.7,394.4L82.6,377.9Z M86.5,363.0L96.3,367.8L88.1,380.3L81.6,357.9L86.5,363.0Z"/>
  <path data-country="Oman" d="M697.2,184.0L694.2,190.8L682.8,198.0L680.0,190.6L687.5,187.5L689.7,172.1L699.5,179.6L697.2,184.0Z"/>
  <path data-country="Pakistan" d="M737.9,134.0L744.6,139.1L734.4,142.8L738.1,149.2L723.8,165.8L727.6,173.9L720.4,176.0L715.9,170.5L703.7,171.6L708.3,166.4L702.2,156.8L715.9,156.6L723.3,150.3L728.2,137.3L737.9,134.0Z"/>
  <path data-country="Panama" d="M355.3,227.4L352.2,221.9L348.9,227.3L342.9,224.8L342.7,220.4L354.9,221.1L355.3,227.4Z"/>
  <path data-country="Peru" d="M376.0,304.9L374.1,307.3L360.0,295.8L346.9,269.2L347.3,262.6L349.2,260.6L352.0,265.5L362.2,250.2L367.3,257.2L374.9,258.5L375.3,263.4L367.8,266.5L365.0,273.5L366.9,279.6L373.8,279.7L378.3,289.3L376.0,304.9Z"/>
  <path data-country="Philippines" d="M865.9,223.7L863.5,232.6L859.0,225.5L854.8,227.5L863.5,219.5L865.9,223.7Z M860.0,217.9L857.5,221.8L857.4,216.0L860.2,214.9L860.0,217.9Z M846.3,220.9L842.9,223.9L848.8,214.5L846.3,220.9Z M854.7,212.8L857.8,213.8L855.0,217.4L854.7,212.8Z M863.8,212.0L862.0,218.3L860.7,210.8L863.8,212.0Z M853.8,209.2L853.2,211.9L850.8,207.9L853.8,209.2Z M853.3,192.2L856.3,196.6L854.3,205.2L859.9,206.9L860.2,210.8L850.2,203.2L853.3,192.2Z"/>
  <path data-country="Papua New Guinea" d="M39.7,271.3L36.6,265.8L39.7,271.3Z M30.0,267.1L20.8,268.0L28.8,263.0L30.0,267.1Z M18.0,273.1L26.7,283.1L11.9,273.8L2.6,278.5L2.5,258.1L19.1,269.0L18.0,273.1Z M32.9,264.1L27.3,257.8L32.9,264.1Z"/>
  <path data-country="Poland" d="M587.5,90.3L587.0,81.1L594.1,78.6L608.7,81.5L610.1,91.5L606.9,96.8L587.5,90.3Z"/>
  <path data-country="Puerto Rico" d="M384.3,192.1L382.0,193.9L384.3,192.1Z"/>
  <path data-country="North Korea" d="M876.6,117.5L868.8,125.8L870.5,130.1L861.8,130.9L862.7,123.2L876.6,117.5Z"/>
  <path data-country="Portugal" d="M527.4,119.1L534.0,120.7L530.4,134.9L526.2,128.9L527.4,119.1Z"/>
  <path data-country="Paraguay" d="M393.3,319.5L395.5,311.4L402.2,310.5L405.2,319.0L414.3,325.1L413.0,333.2L403.5,334.8L405.6,328.6L393.3,319.5Z"/>
  <path data-country="Qatar" d="M677.0,172.6L678.2,168.4L677.0,172.6Z"/>
  <path data-country="Romania" d="M606.8,100.4L617.3,99.6L624.0,108.5L621.4,113.4L603.9,110.1L600.6,105.9L606.8,100.4Z"/>
  <path data-country="Russia" d="M9.1,91.4L11.6,96.9L7.9,95.9L8.8,105.8L5.2,106.4L6.6,80.1L9.1,91.4Z M606.8,80.2L599.2,79.9L603.2,77.5L606.8,80.2Z M112.5,41.9L125.3,43.8L117.6,49.2L103.3,43.4L100.0,46.9L100.0,34.5L112.5,41.9Z M100.0,28.6L96.8,27.8L100.0,28.6Z M103.3,28.5L100.0,26.5L106.1,27.3L103.3,28.5Z M26.8,15.4L15.3,15.1L26.8,15.4Z M897.4,16.8L892.4,14.8L897.1,12.1Z M693.8,29.0L678.6,25.0L689.1,15.4L722.1,10.8L696.2,17.8L688.5,23.8L693.8,29.0Z M817.4,9.5L835.3,13.0L823.5,18.2L867.4,20.1L878.2,28.8L880.6,25.5L899.7,26.6L897.9,23.7Z M1.2,22.3L47.5,28.5L52.4,33.0L73.9,35.3L76.1,30.9L100.0,34.5L100.0,47.0L93.5,48.1L98.1,55.3L84.2,57.3L75.8,62.9L58.8,62.9L55.0,68.0L58.0,70.0L55.3,78.6L42.0,90.6L39.8,72.6L61.2,54.5L50.3,60.8L48.3,57.0L41.8,58.0L35.5,63.3L37.6,65.2L5.5,65.5Z M897.4,71.6L887.8,79.0L899.8,80.7Z M896.4,103.1L887.2,114.4L876.9,118.1L877.6,109.5L882.7,108.9L887.6,98.5L877.5,100.7L862.7,83.9L852.5,83.6L844.7,95.3L835.9,93.0L821.2,96.0L797.2,87.4L793.1,94.6L780.6,91.2L768.4,96.2L758.5,90.4L750.1,91.0L742.2,79.7L733.6,82.8L722.7,76.9L703.6,81.2L699.9,87.6L703.3,91.3L676.9,88.5L671.4,94.1L668.9,92.3L666.2,98.8L672.8,105.0L666.7,110.6L669.5,121.4L641.7,108.6L650.2,95.0L629.5,87.2L628.3,84.1L631.7,83.3L627.2,76.4L618.2,70.4L622.8,62.4L620.2,60.9L628.8,53.5L625.1,51.4L621.5,34.2L630.3,31.5L652.6,39.2L646.0,43.8L633.0,41.8L642.5,50.5L642.9,46.4L649.0,48.4L655.2,42.3L659.9,43.5L658.6,35.7L665.6,36.7L665.9,41.7L684.3,34.8L699.9,36.6L701.4,31.7L721.3,37.2L716.7,28.0L724.9,21.8L732.0,24.3L729.6,26.8L734.2,36.2L728.2,42.8L731.1,43.2L737.6,38.2L732.8,26.7L736.6,22.4L738.2,27.1L753.8,25.8L751.3,19.8L767.1,18.9L767.9,15.3L810.9,7.2L817.4,9.5Z M812.7,5.3L798.6,6.5L805.2,2.0L812.7,5.3Z M677.8,0.0L662.1,0.0L677.8,0.0Z M799.8,3.5L778.0,0.0L800.5,0.7L799.8,3.5Z"/>
  <path data-country="Rwanda" d="M626.0,253.5L626.9,257.1L622.6,258.9L626.0,253.5Z"/>
  <path data-country="Western Sahara" d="M528.0,165.2L528.3,169.1L520.1,169.0L517.7,183.4L507.3,184.4L513.1,182.8L521.5,166.0L528.0,165.2Z"/>
  <path data-country="Saudi Arabia" d="M656.9,198.9L636.6,162.3L645.0,154.7L642.5,151.5L648.0,149.5L671.0,160.8L680.0,178.1L689.2,181.2L687.5,187.5L667.5,197.0L658.5,195.1L656.9,198.9Z"/>
  <path data-country="Sudan" d="M634.9,220.4L631.9,211.7L628.4,219.3L616.9,220.4L614.5,217.5L608.6,222.0L604.8,210.7L612.5,181.2L642.2,181.2L646.0,193.8L634.9,220.4Z"/>
  <path data-country="South Sudan" d="M634.9,220.4L632.4,225.7L638.2,232.8L629.7,238.9L619.9,236.2L609.7,223.1L614.5,217.5L616.9,220.4L628.4,219.3L631.9,211.7L634.9,220.4Z"/>
  <path data-country="Senegal" d="M508.2,207.5L505.9,204.0L513.6,198.1L521.2,211.1L508.3,211.3L515.4,207.8L508.2,207.5Z"/>
  <path data-country="Solomon Islands" d="M52.1,280.9L49.3,278.9L52.1,280.9Z M54.2,280.0L51.4,276.0L54.2,280.0Z M49.7,276.1L45.5,273.2L49.7,276.1Z M43.8,273.0L41.4,270.6L43.8,273.0Z"/>
  <path data-country="Sierra Leone" d="M521.4,228.8L516.9,222.2L520.2,218.6L524.4,223.7L521.4,228.8Z"/>
  <path data-country="El Salvador" d="M330.5,208.2L324.8,206.6L330.5,208.2Z"/>
  <path data-country="Somaliland" d="M672.3,220.5L667.4,225.0L656.4,217.0L657.9,214.2L660.3,217.4L672.4,214.3L672.3,220.5Z"/>
  <path data-country="Somalia" d="M674.3,213.8L677.8,212.4L671.5,233.3L654.0,255.3L652.5,241.3L662.4,234.4L674.3,213.8Z"/>
  <path data-country="Republic of Serbia" d="M602.2,108.1L606.8,110.7L606.0,117.7L598.0,114.0L597.1,106.5L602.2,108.1Z"/>
  <path data-country="Suriname" d="M407.1,231.3L415.1,232.0L414.3,241.5L410.0,244.3L404.9,237.3L407.1,231.3Z"/>
  <path data-country="Slovakia" d="M597.1,95.3L606.4,96.6L592.4,99.6L597.1,95.3Z"/>
  <path data-country="Slovenia" d="M584.5,104.7L591.4,104.7L588.3,108.0L584.5,104.7Z"/>
  <path data-country="Sweden" d="M605.5,44.6L594.6,53.9L592.8,58.3L597.0,62.2L589.7,74.7L582.4,77.0L577.6,66.1L581.4,49.8L591.9,37.5L600.1,34.2L608.8,37.7L609.8,43.7L605.5,44.6Z M592.7,70.7L591.1,74.4L592.7,70.7Z M598.4,68.9L595.3,72.2L598.4,68.9Z"/>
  <path data-country="Swaziland" d="M630.2,333.5L626.7,333.6L627.6,330.4L630.2,333.5Z"/>
  <path data-country="Syria" d="M647.0,145.7L639.3,147.8L641.8,134.9L655.9,133.7L647.0,145.7Z"/>
  <path data-country="Chad" d="M586.2,209.8L583.9,205.1L588.1,198.0L589.7,176.8L609.6,188.8L609.7,201.2L604.8,210.7L607.2,215.2L591.8,226.5L588.2,226.8L584.9,220.2L588.7,218.8L586.2,209.8Z"/>
  <path data-country="Togo" d="M554.7,230.8L550.1,215.6L554.7,230.8Z"/>
  <path data-country="Thailand" d="M806.5,211.9L800.2,208.1L798.1,221.1L805.4,230.6L802.9,232.2L795.8,225.6L799.0,212.8L793.4,192.4L800.3,186.2L802.6,195.3L809.9,193.0L814.0,201.3L813.0,205.4L807.5,205.5L806.5,211.9Z"/>
  <path data-country="Tajikistan" d="M727.5,124.2L723.7,126.5L734.2,126.8L737.5,133.1L729.6,135.2L727.0,129.7L719.6,133.9L719.3,126.3L727.5,124.2Z"/>
  <path data-country="Turkmenistan" d="M703.0,138.6L693.3,131.2L684.8,133.8L681.7,124.9L686.8,122.0L681.3,119.4L692.7,120.9L696.6,116.4L716.4,131.3L707.5,139.4L703.0,138.6Z"/>
  <path data-country="East Timor" d="M862.4,277.8L868.3,276.2L862.4,277.8Z"/>
  <path data-country="Trinidad and Tobago" d="M395.8,216.4L397.7,218.4L395.8,216.4Z"/>
  <path data-country="Tunisia" d="M573.7,155.3L568.8,143.4L573.8,133.3L577.6,134.1L575.4,142.7L578.7,146.4L573.7,155.3Z"/>
  <path data-country="Turkey" d="M642.3,120.8L659.0,121.6L661.9,133.8L624.2,137.0L615.8,130.6L615.4,126.7L623.1,121.2L642.3,120.8Z M618.0,122.8L615.9,124.5L615.3,119.3L622.5,120.9L618.0,122.8Z"/>
  <path data-country="Taiwan" d="M854.4,173.8L851.9,181.3L850.3,176.4L853.7,171.0L854.4,173.8Z"/>
  <path data-country="United Republic of Tanzania" d="M634.8,253.0L648.0,264.6L650.8,282.2L643.7,286.2L636.4,286.0L623.5,268.6L626.0,253.5L634.8,253.0Z"/>
  <path data-country="Uganda" d="M629.7,253.2L623.9,254.2L627.1,239.0L635.0,236.7L637.6,244.0L634.8,253.0L629.7,253.2Z"/>
  <path data-country="Ukraine" d="M629.5,87.2L650.2,95.0L649.3,100.3L637.4,105.4L640.8,109.0L634.7,111.4L629.2,104.0L621.7,108.4L625.1,104.9L621.7,99.6L605.2,98.7L608.8,88.8L629.5,87.2Z"/>
  <path data-country="Uruguay" d="M405.9,344.4L417.0,352.3L412.7,359.2L403.9,356.0L405.9,344.4Z"/>
  <path data-country="United States of America" d="M161.1,190.4L160.3,186.7L161.1,190.4Z M313.0,95.7L339.6,104.6L343.6,108.3L343.3,119.8L362.8,109.4L371.2,109.3L376.9,101.7L380.5,102.9L382.6,110.0L374.7,113.5L375.1,119.9L361.2,126.6L360.1,133.7L359.1,127.7L360.7,138.9L346.7,151.7L348.3,171.6L340.7,156.4L334.0,155.0L326.0,155.8L326.5,158.9L313.3,157.9L307.2,163.0L307.2,169.2L304.4,168.6L297.6,158.2L290.1,158.5L283.7,150.8L257.2,148.3L248.4,141.8L240.7,128.3L238.6,98.8L243.5,102.8L242.9,96.9L313.0,95.7Z M167.5,71.5L163.3,70.4L168.6,69.1L167.5,71.5Z M136.1,62.8L131.4,61.8L136.1,62.8Z M120.7,50.7L128.3,52.2L120.7,50.7Z M162.3,27.7L197.5,32.2L197.5,61.5L206.4,65.9L211.3,63.2L225.1,77.2L220.1,76.6L214.8,68.4L193.6,62.2L182.2,59.7L170.7,65.1L173.4,58.5L153.9,75.0L138.0,80.0L157.4,65.9L145.1,66.7L143.7,62.5L136.6,60.9L135.7,56.0L148.1,50.7L148.1,47.5L137.6,48.6L129.7,44.8L145.8,43.4L133.1,36.4L162.3,27.7Z"/>
  <path data-country="Uzbekistan" d="M716.3,133.2L696.6,116.4L689.9,120.9L689.8,109.4L696.3,107.5L705.0,114.0L712.3,113.3L720.6,122.9L727.4,117.9L726.1,120.3L732.6,122.3L723.3,122.7L718.6,127.7L719.6,133.9L716.3,133.2Z"/>
  <path data-country="Venezuela" d="M371.7,213.2L370.8,221.6L375.1,212.0L379.5,217.0L395.3,216.5L400.6,223.9L396.5,231.4L398.5,234.6L388.0,237.3L391.6,243.1L386.1,247.5L380.5,241.2L381.6,231.0L368.9,226.8L366.7,221.4L371.7,213.2Z"/>
  <path data-country="Vietnam" d="M820.1,182.6L814.2,190.4L822.2,202.3L823.0,213.5L812.9,223.1L810.8,217.2L818.7,211.4L818.9,202.5L805.4,179.8L813.3,177.0L820.1,182.6Z"/>
  <path data-country="Vanuatu" d="M67.8,296.7L68.2,299.2L67.8,296.7Z"/>
  <path data-country="West Bank" d="M638.9,148.8L637.3,152.0L638.9,148.8Z"/>
  <path data-country="Yemen" d="M682.8,198.0L658.7,210.5L658.5,195.1L667.5,197.0L680.0,190.6L682.8,198.0Z"/>
  <path data-country="South Africa" d="M628.8,341.4L618.7,353.8L599.0,358.8L590.9,339.3L599.7,338.9L599.7,327.4L604.0,333.5L608.3,329.0L614.2,329.6L623.6,319.0L628.0,319.5L629.8,326.2L626.7,333.6L632.1,333.6L628.8,341.4Z M622.4,340.5L617.5,343.4L619.4,345.8L622.4,340.5Z"/>
  <path data-country="Zambia" d="M631.9,278.8L633.0,293.7L625.4,296.2L617.6,306.1L608.0,304.8L604.8,290.3L610.0,290.3L609.8,284.1L624.2,291.4L620.9,286.9L621.8,276.6L631.9,278.8Z"/>
  <path data-country="Zimbabwe" d="M628.0,319.5L620.1,317.1L613.2,305.4L617.6,306.1L625.7,298.5L632.1,302.2L628.0,319.5Z"/>
</svg>